<mxfile host="app.diagrams.net" agent="Mozilla/5.0 (Windows NT 10.0; Win64; x64) AppleWebKit/537.36 (KHTML, like Gecko) Chrome/137.0.0.0 Safari/537.36" version="27.1.4">
  <diagram name="Page-1" id="6ly6zhJPJUR645lJeYqC">
    <mxGraphModel dx="1572" dy="834" grid="1" gridSize="10" guides="1" tooltips="1" connect="1" arrows="1" fold="1" page="1" pageScale="1" pageWidth="2336" pageHeight="1654" math="0" shadow="0">
      <root>
        <mxCell id="0" />
        <mxCell id="1" parent="0" />
        <mxCell id="mvL4miRv9UCeCVw3CvBi-2" value="" style="verticalLabelPosition=bottom;html=1;verticalAlign=top;align=center;strokeColor=none;fillColor=#00BEF2;shape=mxgraph.azure.git_repository;" parent="1" vertex="1">
          <mxGeometry x="210" y="270" width="50" height="50" as="geometry" />
        </mxCell>
        <mxCell id="mvL4miRv9UCeCVw3CvBi-3" value="Unit Testing" style="rounded=1;whiteSpace=wrap;html=1;" parent="1" vertex="1">
          <mxGeometry x="330" y="272.5" width="100" height="45" as="geometry" />
        </mxCell>
        <mxCell id="mvL4miRv9UCeCVw3CvBi-5" value="Static Code Analysis (SAST)" style="rounded=1;whiteSpace=wrap;html=1;fillColor=#dae8fc;strokeColor=#6c8ebf;" parent="1" vertex="1">
          <mxGeometry x="500" y="272.5" width="100" height="45" as="geometry" />
        </mxCell>
        <mxCell id="mvL4miRv9UCeCVw3CvBi-6" value="Build" style="rounded=1;whiteSpace=wrap;html=1;" parent="1" vertex="1">
          <mxGeometry x="670" y="272.5" width="100" height="45" as="geometry" />
        </mxCell>
        <mxCell id="mvL4miRv9UCeCVw3CvBi-7" value="Docker" style="rounded=1;whiteSpace=wrap;html=1;" parent="1" vertex="1">
          <mxGeometry x="840" y="272.5" width="100" height="45" as="geometry" />
        </mxCell>
        <mxCell id="mvL4miRv9UCeCVw3CvBi-8" value="Update Image Tag" style="rounded=1;whiteSpace=wrap;html=1;" parent="1" vertex="1">
          <mxGeometry x="1070" y="272.5" width="100" height="45" as="geometry" />
        </mxCell>
        <mxCell id="mvL4miRv9UCeCVw3CvBi-9" value="GitHub" style="rounded=1;whiteSpace=wrap;html=1;" parent="1" vertex="1">
          <mxGeometry x="1240" y="272.5" width="100" height="45" as="geometry" />
        </mxCell>
        <mxCell id="mvL4miRv9UCeCVw3CvBi-11" value="Argo CD" style="rounded=1;whiteSpace=wrap;html=1;" parent="1" vertex="1">
          <mxGeometry x="1410" y="272.5" width="100" height="45" as="geometry" />
        </mxCell>
        <mxCell id="mvL4miRv9UCeCVw3CvBi-12" value="K8s" style="rounded=1;whiteSpace=wrap;html=1;" parent="1" vertex="1">
          <mxGeometry x="1410" y="380" width="100" height="45" as="geometry" />
        </mxCell>
        <mxCell id="mvL4miRv9UCeCVw3CvBi-35" style="edgeStyle=orthogonalEdgeStyle;rounded=0;orthogonalLoop=1;jettySize=auto;html=1;entryX=0.5;entryY=0;entryDx=0;entryDy=0;" parent="1" source="mvL4miRv9UCeCVw3CvBi-13" target="mvL4miRv9UCeCVw3CvBi-14" edge="1">
          <mxGeometry relative="1" as="geometry" />
        </mxCell>
        <mxCell id="mvL4miRv9UCeCVw3CvBi-13" value="Build" style="rounded=1;whiteSpace=wrap;html=1;" parent="1" vertex="1">
          <mxGeometry x="840" y="380" width="100" height="45" as="geometry" />
        </mxCell>
        <mxCell id="mvL4miRv9UCeCVw3CvBi-52" style="edgeStyle=orthogonalEdgeStyle;rounded=0;orthogonalLoop=1;jettySize=auto;html=1;entryX=0.5;entryY=0;entryDx=0;entryDy=0;" parent="1" source="mvL4miRv9UCeCVw3CvBi-14" target="mvL4miRv9UCeCVw3CvBi-16" edge="1">
          <mxGeometry relative="1" as="geometry" />
        </mxCell>
        <mxCell id="mvL4miRv9UCeCVw3CvBi-14" value="Container Scan" style="rounded=1;whiteSpace=wrap;html=1;fillColor=#dae8fc;strokeColor=#6c8ebf;" parent="1" vertex="1">
          <mxGeometry x="840" y="490" width="100" height="45" as="geometry" />
        </mxCell>
        <mxCell id="mvL4miRv9UCeCVw3CvBi-15" value="Dynamic Code Analysis (DAST)" style="rounded=1;whiteSpace=wrap;html=1;fillColor=#dae8fc;strokeColor=#6c8ebf;" parent="1" vertex="1">
          <mxGeometry x="840" y="690" width="100" height="45" as="geometry" />
        </mxCell>
        <mxCell id="mvL4miRv9UCeCVw3CvBi-53" style="edgeStyle=orthogonalEdgeStyle;rounded=0;orthogonalLoop=1;jettySize=auto;html=1;entryX=0.5;entryY=0;entryDx=0;entryDy=0;" parent="1" source="mvL4miRv9UCeCVw3CvBi-16" target="mvL4miRv9UCeCVw3CvBi-15" edge="1">
          <mxGeometry relative="1" as="geometry" />
        </mxCell>
        <mxCell id="mvL4miRv9UCeCVw3CvBi-16" value="Push" style="rounded=1;whiteSpace=wrap;html=1;" parent="1" vertex="1">
          <mxGeometry x="840" y="590" width="100" height="45" as="geometry" />
        </mxCell>
        <mxCell id="mvL4miRv9UCeCVw3CvBi-1" value="" style="image;sketch=0;aspect=fixed;html=1;points=[];align=center;fontSize=12;image=img/lib/mscae/Person.svg;" parent="1" vertex="1">
          <mxGeometry x="100" y="270" width="37" height="50" as="geometry" />
        </mxCell>
        <mxCell id="mvL4miRv9UCeCVw3CvBi-25" value="" style="endArrow=classic;html=1;rounded=0;entryX=0;entryY=0.5;entryDx=0;entryDy=0;entryPerimeter=0;exitX=0.982;exitY=0.483;exitDx=0;exitDy=0;exitPerimeter=0;" parent="1" source="mvL4miRv9UCeCVw3CvBi-1" target="mvL4miRv9UCeCVw3CvBi-2" edge="1">
          <mxGeometry width="50" height="50" relative="1" as="geometry">
            <mxPoint x="150" y="290" as="sourcePoint" />
            <mxPoint x="560" y="260" as="targetPoint" />
          </mxGeometry>
        </mxCell>
        <mxCell id="mvL4miRv9UCeCVw3CvBi-26" value="" style="endArrow=classic;html=1;rounded=0;exitX=1;exitY=0.5;exitDx=0;exitDy=0;exitPerimeter=0;entryX=0;entryY=0.5;entryDx=0;entryDy=0;" parent="1" source="mvL4miRv9UCeCVw3CvBi-2" target="mvL4miRv9UCeCVw3CvBi-3" edge="1">
          <mxGeometry width="50" height="50" relative="1" as="geometry">
            <mxPoint x="290" y="280" as="sourcePoint" />
            <mxPoint x="340" y="230" as="targetPoint" />
          </mxGeometry>
        </mxCell>
        <mxCell id="mvL4miRv9UCeCVw3CvBi-27" value="" style="endArrow=classic;html=1;rounded=0;exitX=1;exitY=0.5;exitDx=0;exitDy=0;entryX=0;entryY=0.5;entryDx=0;entryDy=0;" parent="1" source="mvL4miRv9UCeCVw3CvBi-3" target="mvL4miRv9UCeCVw3CvBi-5" edge="1">
          <mxGeometry width="50" height="50" relative="1" as="geometry">
            <mxPoint x="290" y="280" as="sourcePoint" />
            <mxPoint x="340" y="230" as="targetPoint" />
          </mxGeometry>
        </mxCell>
        <mxCell id="mvL4miRv9UCeCVw3CvBi-28" value="" style="endArrow=classic;html=1;rounded=0;exitX=1;exitY=0.5;exitDx=0;exitDy=0;entryX=0;entryY=0.5;entryDx=0;entryDy=0;" parent="1" source="mvL4miRv9UCeCVw3CvBi-5" target="mvL4miRv9UCeCVw3CvBi-6" edge="1">
          <mxGeometry width="50" height="50" relative="1" as="geometry">
            <mxPoint x="750" y="320" as="sourcePoint" />
            <mxPoint x="800" y="270" as="targetPoint" />
          </mxGeometry>
        </mxCell>
        <mxCell id="mvL4miRv9UCeCVw3CvBi-29" value="" style="endArrow=classic;html=1;rounded=0;exitX=1;exitY=0.5;exitDx=0;exitDy=0;entryX=0;entryY=0.5;entryDx=0;entryDy=0;endSize=6;fontSize=11;" parent="1" source="mvL4miRv9UCeCVw3CvBi-6" target="mvL4miRv9UCeCVw3CvBi-7" edge="1">
          <mxGeometry width="50" height="50" relative="1" as="geometry">
            <mxPoint x="750" y="320" as="sourcePoint" />
            <mxPoint x="800" y="270" as="targetPoint" />
          </mxGeometry>
        </mxCell>
        <mxCell id="mvL4miRv9UCeCVw3CvBi-30" value="" style="endArrow=classic;html=1;rounded=0;exitX=1;exitY=0.5;exitDx=0;exitDy=0;entryX=0;entryY=0.5;entryDx=0;entryDy=0;" parent="1" source="mvL4miRv9UCeCVw3CvBi-7" target="mvL4miRv9UCeCVw3CvBi-8" edge="1">
          <mxGeometry width="50" height="50" relative="1" as="geometry">
            <mxPoint x="1150" y="320" as="sourcePoint" />
            <mxPoint x="1200" y="270" as="targetPoint" />
          </mxGeometry>
        </mxCell>
        <mxCell id="mvL4miRv9UCeCVw3CvBi-31" value="" style="endArrow=classic;html=1;rounded=0;exitX=1;exitY=0.5;exitDx=0;exitDy=0;entryX=0;entryY=0.5;entryDx=0;entryDy=0;" parent="1" source="mvL4miRv9UCeCVw3CvBi-8" target="mvL4miRv9UCeCVw3CvBi-9" edge="1">
          <mxGeometry width="50" height="50" relative="1" as="geometry">
            <mxPoint x="1210" y="320" as="sourcePoint" />
            <mxPoint x="1260" y="270" as="targetPoint" />
          </mxGeometry>
        </mxCell>
        <mxCell id="mvL4miRv9UCeCVw3CvBi-32" value="" style="endArrow=classic;html=1;rounded=0;exitX=0.5;exitY=1;exitDx=0;exitDy=0;entryX=0.5;entryY=0;entryDx=0;entryDy=0;" parent="1" source="mvL4miRv9UCeCVw3CvBi-11" target="mvL4miRv9UCeCVw3CvBi-12" edge="1">
          <mxGeometry width="50" height="50" relative="1" as="geometry">
            <mxPoint x="1310" y="340" as="sourcePoint" />
            <mxPoint x="1360" y="290" as="targetPoint" />
          </mxGeometry>
        </mxCell>
        <mxCell id="mvL4miRv9UCeCVw3CvBi-33" value="" style="endArrow=classic;html=1;rounded=0;exitX=0;exitY=0.5;exitDx=0;exitDy=0;entryX=1;entryY=0.5;entryDx=0;entryDy=0;" parent="1" source="mvL4miRv9UCeCVw3CvBi-11" target="mvL4miRv9UCeCVw3CvBi-9" edge="1">
          <mxGeometry width="50" height="50" relative="1" as="geometry">
            <mxPoint x="1390" y="290" as="sourcePoint" />
            <mxPoint x="1340" y="295" as="targetPoint" />
          </mxGeometry>
        </mxCell>
        <mxCell id="mvL4miRv9UCeCVw3CvBi-34" value="" style="endArrow=classic;html=1;rounded=0;exitX=0.5;exitY=1;exitDx=0;exitDy=0;entryX=0.5;entryY=0;entryDx=0;entryDy=0;" parent="1" source="mvL4miRv9UCeCVw3CvBi-7" target="mvL4miRv9UCeCVw3CvBi-13" edge="1">
          <mxGeometry width="50" height="50" relative="1" as="geometry">
            <mxPoint x="880" y="380" as="sourcePoint" />
            <mxPoint x="930" y="330" as="targetPoint" />
          </mxGeometry>
        </mxCell>
        <mxCell id="mvL4miRv9UCeCVw3CvBi-38" value="&lt;font style=&quot;font-size: 27px;&quot;&gt;CICD Pipeline (DevSecOps)&lt;/font&gt;" style="rounded=1;whiteSpace=wrap;html=1;fillColor=#f5f5f5;fontColor=#333333;strokeColor=#666666;" parent="1" vertex="1">
          <mxGeometry x="478" y="110" width="690" height="60" as="geometry" />
        </mxCell>
        <mxCell id="mvL4miRv9UCeCVw3CvBi-39" value="" style="shape=image;verticalLabelPosition=bottom;labelBackgroundColor=default;verticalAlign=top;aspect=fixed;imageAspect=0;image=data:image/png,iVBORw0KGgoAAAANSUhEUgAAAOEAAADhCAMAAAAJbSJIAAAAbFBMVEUxeMb///8mc8QWbsPe5/SVtN2GqdnR3vARbcIqdcXv9PodcMMzecfY4/IGa8EicsS4zOhBgcrB0uvo7/hpl9J1ntX2+fxXjc6wxuV6otZyndRfkdChvOG8zuk5fcjG1uxJhcuSsd2EqdmcueD1MnlaAAAF0klEQVR4nO2d23ajIBRAEWyVENGo8Z6YpP//j6PpmrbTFsVw08zZq12dlxD3IAiHAyJvJDke0LNxaJK7Gxp+U8yo6+sxAGU4fTfsuOtrMQbvRsP0eQUHxXQwxK6vwijYQwlzfRFGYQk6PmMn8wk9oud7TPzLs/sBAAAAAAAAAAAAAAAAAAAAAAAAAAAAAAAAAAAAAAAAAAAAAAAAAAAAAAAAAAAAAAAAAAAAAAAAAAAAAPDfQDQj+bUUY8YIe//M8I84xtjMkZ0k87WS7We/EjPC47J+qU59EA0fiaKgT6vuWreIhyzW7ck9zUwbYhae6yoqRJ/O+q5BYazzEF2bhpSw42k3X0SW1DHRVpX2DDHPe/liglu8McOYXSVq7yu+ptOQ7Rji8EXY9EREst3yGgx5vrD+NmZI4wXtb4uGrFx8g97ZjCGrHyxoK4bk+mhBGzFkt4cL2oYhzh8vaBOG9KxQ0CYMua9Q0BYM2YtKQVswREoFbcCQJUoF6TJkUSAm+/27/YmPRF/qcEZh13d1eznv94eyuXXp9zaryxAxMfz6+6XVfOJDHwXH3ZRe9nbmJMb0PtGlFMeM8PLafxngaTOcAAt6ilepIAMX3AEjfs5/icdQTEie/JVcvSE9iAVfuDBGQRk5RtswxFehYD597Zhf+i0YslQkWM+GJyi5BOs3DEXNMJB5oRjldWDhrVVKhkRUhaVcnBDbeC2XkqFo0F2Exq9bHhVDWgoMfQvNSxolQ9HM0EYHIo2SYSMwzNb05kIjhqt6daGRu1RyzGcHIz3NqjpTpaeFeFi6oneIqo3ahIYreg+smVHbQLUWRbU6nFqOiZCu9U81TM2eRm7iKaJF1Ob4EzPgEb8M3Tuai2Lc6Q/60hEeRM0wno8H9xfH96qaIaKzhsN0OOcuhziKhqySUPSyV+LuNfCKhtJR/ergqtNRNZRfmXF1syrX4YLVtax20ekoGy5aId3V9utR2XDhKnd2tF2P6oaIvS5R9KKL3SiOBsPF2SaJ9gzaKXQYIrKsFr2isRgD0GKI2NKMk8Rea9RjiPB5bgz+jWxvq1PVZIhoKDV++6S4WFLUZTg0xnZhgmlpR1GfIaL8baGilbao0XDocNCy5JODDUWthsOtej4tMNzZeGhoNkSUoAVdTmpBUbchGjclvEo/OnLzvY0BwzHTohXmMPyLhfvUiOGYMkM7qeT2q/FKNGQ4wMhN4mYtjAf/zRned0FFs4q16Uo0aTgOAtq5IEdgerZo1vCeFjTTHrddh/dvmImpNoYHNuYNxzH5VDVWhhOjbBgiiiZ6VdO5bVYMh8ejWNH0Q9+OIaKx+EY1vFRsyRDhVmg4v/dd7ZstGSIeiAwNzxKtGYoTqC5PYohikaHhYIaa4ZL/Bi4KVK25DvF1wcxAmF50fvjipVDLiSoCLF2NXPS8WPOoLdx5RSs5NxDvPlnzmCYcm1bF5BJTRFuksjWPae6GXiG1eI1FVWh6gqjB0PP8dnbxWvzA79Y8ags/HgB+w6culIbiLMZ85T3NB7vuHArWdmlYTsyeTOdoajMcK/LlwNn3s65wzNupNNR1x2nCH8OUXXptaUgIi9nwQ0i4PybTi27rjrX9NLxT+MEpqarkFPizUeGVx0sFhkt4M54q7diwML8/z7Gh8Vbo2rC3sGXBqWFhY7+CU0MrqQouDRsrW04cGjY29jm7NGztCDozzM6byGt73LDaSG4iefCMKKtpwmrxUqlkhO/4udVUb3wtdr9QSA6nKC9Py45M7Fvrqez8V6T7AcpIPjMF/CS4UnfbgxSgcXi+JXNt0q8aTFa0i30pQ1XyS/12CrIfN+3OT7v6wh1u7tLGeNYVC3l8vrR5Uw80eXnZk8EtNnRSuTMopXhk+PtkZgAAAAAAAAs5uL4AwxzQ8bkHfPSIEkuxOEewBBlf/nZL7KE1nRemH54Ohis6L0w7vPNGQy+NnyAu8BPK8Ljx7f1YmOT4fA+Nw/F9p+0fBSlaHLPcHMUAAAAASUVORK5CYII=;" parent="1" vertex="1">
          <mxGeometry x="410" y="230" width="30" height="30" as="geometry" />
        </mxCell>
        <mxCell id="mvL4miRv9UCeCVw3CvBi-40" value="" style="shape=image;verticalLabelPosition=bottom;labelBackgroundColor=default;verticalAlign=top;aspect=fixed;imageAspect=0;image=data:image/png,iVBORw0KGgoAAAANSUhEUgAAAaoAAAB2CAMAAACu2ickAAAApVBMVEX///8AAACKssL8/Pz5+fnx8fH29vbo6OjZ2dnz8/Pe3t7u7u7U1NR5eXnKysrX19erq6u8vLyZmZm3t7eCgoLCwsKhoaHj4+NERESQkJBjY2NoaGggICDMzMwSEhKxsbFaWlpmZmaKiopwcHCdnZ2EhIQxMTGTuMdVVVXn7/JCQkIODg7U4ug2NjYnJydPT0+kw8/E2ODa5uu2ztisyNOdvsx+q7xsmNzeAAAYb0lEQVR4nO1daZuaPBt1GiCQALIYGFTEAZ3VGWft//9p752wmAAqPm2nvd6L86kjIZCc5N5DJ5MRI0aMGDFixIgRI0aMGDHi/wHa7uFvv8KIYfj4eff2t99hxBDsfgC+3v/2a4w44OEN9f5890Ng3Fj/Du5+vL4Z3Z/Re8XVRy+TI74fb8DGz6/P9y4hxoeg6ufXaF38E6jl3I/PndW+ht6/KiE4bqx/ADUbgNddRw4+vI1C8HuAPt7e3na7hwftRJuHj6+fDVmdhruSys+Rqz8Lq+bg7g4os44Rpu2arfW1a198KK+9nmB7xK/joaZKmAd3X5+7B613e2i7z7rZZ9uIqLnqqLIRvxHvMlWCrh9fr7v3vg0CcrDegW8tsoxSYd2NhuAfxPvd19fPn22+fnx97IyezfXwUVmDdy2VhXblhZGrPwdkWdb7bge2xd3dXYutnr112FkfLVZKrkYH6zuADOv94+NO3mFfXdsc9k9lDbal3a68ZdRX3wX0sPs8+FE/O5sHoL3VGksVkSVXd6Md+I0w3j9eD8LwoxtQen/tFYIlV6890cIRfw7o4e215uru46FNlvFWUvnVx9XnuK++Gw+7JkbRDdU+fFaWoHLhvWz9jS85ooSxa7ZWx+2tguotrko7sBPPGPHnoTVkfe1aGwtVZoQSpy1NjtEV/itAtQ3x87VNQJlZ/KnoJut1NC3+HtD7511tX6hXKn/4Uyam5GpUV38JWp2y+mqZF0YPV2Umcqy3+FuorfN2tlf76NrnpQ4b1dVfQ2Wdt10p9CEM+leZwTf+09foXf01aFVU/VWt+0PVvpK4sr5GEfiX8VDZgqrbVHL1U5aMu9FiH4bk8RrwuJ2g313tULlSP1pFgaUv9db+ZbQCz8K5ElgjvS87+GuoPGLVai9tiztps5X7b6yQPoeKqrlB6O9X7VUZhZqWqmx2iT8RDBzrYs6hpoqm8R8IGmifPYZgSeCHRA1v9XOMBZ5BTRX2TesP1OZVCksNM5V+rxQOFOTdjSnh06ipijNb/xNllL1cvbcN9LcxxH4OqKGK/CGqmjIKhasyi3+wJIzXsTj6DL6Dqj6uSjNQigbuRif4DL6Fqird+3UqTPswMnUG30NVta+U4O2uJ0Q44gS+iaoqNa9w9dEJ3I44he+iqrIDZSlXhmlHq28ovouqCSpDf3L0SGTwxzDtUHwbVRP02gkxfbQc4f9PID0m5nRqEtx/vmlwPx2qNBrzjuNTvCHRBhrhC+J2xmc70vcwJPthmSzKncXNzcLJN6FNe17LMsPNtljcLIptkNl0wLtYtrctoMfEjzv9GXEaRsms4I8sZkkU2vi/T3HsO/PrpZjhp+f1zSbtmTDiCpiT7mNMcYXF/N8KVdZEc5P184r/vbouPNz7dMqS+WP59NXzfe4PmRqBh04OUQjFjxO3IObcXilY3gfqcI2wUJu8LDwlQoVm1/saj9kEbsbJc9N6NU8P6R9Esrwav/LMfZLK02gUTY/X+3QiNovGgsV+f+9P5K2TOk/tvq49o01JUV5ZTKz2tkPr8lKOxKWGqpAa2V7pdjWLO1kse7ZsD2RrDsx1vbdTjcbXyboKK3u+6sNtROsHot4mL4F+eCVtLV3ZaIYWvaitA02ryMetdSHh0deaKdYfpQu+oWsH8jdIb+abFr09PbPWdFUMFChun9hFi/JSYmBLokqnrDvqJVNWycTIO0sOsEoQGiQJ39rqandKW9nrnmeVCGHGxdwujjTYk+bFVaomRveWpF7PcXsZynB0VHVpXUs/+xhP3IbijdVojqPvtvSRwlVNlebiVm6joYra2DgIQGPb1+2KISnjSI5NXm5oQ3RmWfUniUAe+jumrdwT0xZS/uoT+/jUrtJJ9eIKVR7p24Wppp+n6uoeGWWXukKVPgkOf0U4rfT3qddfIE1a2jVVRkhauY2GqpgRq2m4v+/vdWlrzf1235aqOusK2j68t6K05bbqjSmxU7MWkinVJmFHE8jIJuXOU6i67h3CM6WCq9NUXd0YluBKoYphWWtExC/TfuHJntZUWtoNVdFU76cqIBnPUDkn++TD0CuumnXytPBsrFvUzGbNGt1MBiWRRSWZVAeoHfOt7Jf+1ykRpi6esNMTe5VpQvZrx+Vog40WcxLOUHUVIMpnWKbqyVG2aWSGBKhCkbwkVrfr4uZa6XsRGw1XNVXWpm3fNlSZHjfPFapW8yRM7anNNofxFZoQNs3kPc1SOwvy7TYB25kk9RvYxhCuUFsE7vqNQCRr7i5C18fGSTLLV+KLbAhVj5TQAVStCOaDVHaVisjMTKBK3u/LjR3baWrG/lxquNBorVkaqoLhVL0kJgEnZrvNIxeHzUy4Ohe/RiUhX1wSzBfOLE+SJM83xK9aXWt4SBa5jKgftlGprTr530idgecbx3Hmh/UbMh+1dOu+cArVgL26FxptCFVXLCbQtKEKtoHjFPPrtoTNrRgGeYYqa2IdLMlb12Kzm8WicGYZxrNDy0yrl/blVL142jSfg9cnSNhOSf28e4tAu0p3PhN3vdhuvJAx8M38LGq4CvVBxRmlCGz93Y4EasqmWqe4BImq9RIyYipTtJ+WDebKrxksMjSIqpzyaRJULdcewTV8VYUvNRsm+NyuQs2crhIaFnNwpIMo2iSJh+3m1qfUqoi5mKqCmLM5uPtRFvrMBw7MRjelMUZG9W/mrp3EY7ZJYgCxXV+rpmctGD0LsY2kbWXxbfbVupHIw59p/mwxvynguabhirkLGVKcljUNnTm8PUO58rMFcq1D1dxjzGv9eA2WsjaJn8BFJZYdlbEPJ9+klqe0i21Yj2eomqT1Xy+uvp0X+cbzGQ86hFFkaw2Nc6NULBdTtTe8NY/L+C6wAJi6rBljQgmqNlVBCicI05jqYJ5rhkXh3StKV6Y5KM60+6n6UuL7ga0iwEwa/QtO1k4ebGBdBnkSUheWRoZtWTY9k7LJJsksxZtxY1DfCiu3QWyGnufHrmIOvFgMJKCVTbGbz+fONuHPi6IgD6jClWvDnHWoenYCL8u8wHn2zIwYjUhIw/sij3x3GmNKYc/bzMtw8zqZVc7XpVTd2DezTeaanASDk4BNUk8HKF1cWTRx4GyY2WjECdIo0SoVkRFzyLYSloUUYn/vcYM30jyswNCMQpYCYGF6EcP+nmmKpgr9m1w0cf3Uli/MQK4pVBWEOVxvzHJb8QaWMZvqmkXdYDZLQLz70JnNH5iFSDZfQtulKlXLdZSaLrDvZX5KsO8bjZ6NXLGuCYZ1DV6vZtDYBHlUK5ZnGgtqLqVqbm4jNoVOa0da08mkEtRL26iWVoGdwFdrOzWKkvKi07h/p9EKUWhfnaJO2akEY0k3wX4S6zI2YWHCa1Mk22orazvzGDThC9eSbYtnK40VqqIU1jnfAllG5YYr0wdSLcIyzwu5YMHwPA4cT+T7s5RhTaEqwn7gFGCFzGazLXTtTupXuwcJtPGn+OBxIkMHKdSIDD8W2v1yqgJf2i2CA61eH/6k0keMzTK7ZZQbWrU+9zobZFgIbiRf6qObYlQVxHOmixcHH59LXJZFfixfz4mzcYmu8YWLLYVmbE8NlaoiyGBlm2ZqyWptNfVhnYGIsG0bLPJ6HihJWSYT46V+rFLlR/cF34hZFvIFwPC07jLdAFMmVUIDyMBTo1azDhVi6GKqiNfeE4ZVW1mRXgr2JQmSDh1Iq4yARyzCH+fR8qWE/a5GLDqhin0E26McK5DlEqUBY9uwMmmQYamXSGopVNnb0AYhb4FtKDsEq2kIdgV0TqkOz7FI6uXz2240xHPD2FCp8kBRgYafAv08K9V0W8SLJJy2nU3gKm6MV01M+X+gqp1ahF4rMZ1My5d+1HtyKrD2ylbPsd+OjPRDUyN/YpcpdgXCnTkCzb8vohTGwsky5K2ziqONWy8zZBBZtwTUV6maBi7mQh4ZSI79AFUg2SY8IKuZXnF9zBcGqkiLqjAA8jGwb1m6rluN8E5DkEBdjYCM2Kpk1BNlPLRxOVXdLLBRy32n8p1W9+s+VCrtNu7P/HXBLYmfh3302aq9nWhI9Y8OeHZSuGwo/u+LkXh2435rWJ5IxwhVqsyoGiZCckC1ogrGnK1PRRY91qHKB3HURIlgDVTibU+3AYt7TtcgatSu6JTZh9DeL1Gl1S7TvBU86MctCdNhVIltdSgLfO94wFp6/DFzG67LXtXzJBeBt2p4il2xsDK9RVVTmi/bijVV4fGMlUAPVSw0ZbFvVI8PiJP1W8SGrlX3MjcFAflbqKoTlOvk9ABK3JLMHZjbfjsaUC9fUZ/0p+UElt5Ek70noIrFjaBBhhxgmOsZPUaVHO8QVCEkOwm96KWKKJ93qMj2/a5ar97QQpVPF7pccP8OqpqL695cVhuCqmHFFoYIURxtiyxqHY8IgMmsCMjHScKk5yKZmjX1jlIlh0QEVYrn3Y/zVOmVmiPR5piMMWohKUz/30yVFGY8juVwqsptdbwARosp3p94FJM3HVAl72btv1GVMc2/OovhVOHIO3YKSptU85m5PLv1e6iqZuSmckH23Ok+jiko2IHFPSJEcfz4L7IIwZ0qjgP28q56ngQyVYoAvNGjoVTZeivteLuY8UAblvsbIAArA9RlGTniZaJJtQxDFv4uqmqzYlbpqkfq8KBMP7ZJAG7EQKpEAcyJj1Vo1E6pnR8j60k2yG9RJFOlmBWFEQwVgFhVVAufx6KzKFEE6gCqqotRfJSqCaruZaFC1cDUYm/JZj3qoIoe3MaJkwRHsInCNB588PGMBASfzgbtQf12cVkPllQxZ7Ach03wUKp8rCRePBoVPLg+22qXUaXdVDOv+0epqgMaqSdTpUe/QBWuVnVWRwBsfxO6R8ATnfrgEk4RojhRAsi58qPIBaXF8vXphK/tMomqqSzHMnszjCo7VRJgiXUzd/Ig8rJwchFVqI6IXtHUPEZVbaXFkaSrbn6JqtrzSKtoxZVHuGd+BJQOKoUpIWzAUx9DBa5MN9skgQebi7izE7vLi2WqlAIUMxyoq2xTCUiZ0ULE6u2peRlVh6xAQo9Vltc74Ilu2IEqsIB+garK872dkko43BuMWNoxXPSRko9TRdAx4ZrSwmbqe5tktg1CouaNFCW21yS/SvXI9M1AC9DGcv+PeJt7PCNELetSqsKmj+kRe7gOKFzHETfWqz12jbO2dX8BVdUrrc24Hr9pHt3VF2J36sjO4irh9bE8kG6moNy9IAliJUKhEGKTw1vFsvwr4jw8Gq1oUSVHZB5x4IHi5UICXUiVNqmvOEa7rq9EkxXN/IhHK6qg4Spm/52q2s/IQlZLh4VuDjXyzkA7payAiHsXcbIMncbE5LaYKYdo94q4uqGHt1ICKz7L/XYMcAhVTyQ81E9eZqw3TtPVyqV9RVyNM7EkgWCgdrwZYS1fR78fSlX1Rs8k8WhtHvl6u1q3xtH/IukIvtrHgyWIPVPY/J8lXZjEE9mXKiaKvRZNaNXTVP75FueBO5CqWAlVBMito0JK/msAVVZT9/SCcY+2atJkeTwTlZh1vHM+keU4oEl+nqWqFt4JcbxGUzzGR+r97Mf0si9qnTLXK/F265GmR6oUuGRUTWkl5Ttpak4ysWeebQyjylYrl71qLK4a4DpPFaKHjT0zjE5ondXi7wUnIkqIaG0xMSrn+/TDGmnVVnQ+MVKLv6WxSUJ70lQExJOeyH4Muz41LrAATyurRhMtr51NFoZeMlcswOd4Q9Xq/ceZF3pbtdDz0UwScG6G+VUsVoMV+8QLs6Ad3RpAlUEPB0oWtqEuX+o1fkdkFiK60wTFr5a2VfeE4kgasErVo43VdH1Wb+PQdqLUtNxmNXhtbWWYM/4CKR5UtNnc9XVcWZ2Iqwsk9sIlZ9rwwLUTuVgbGFjC50rCOQZYgIjqUnrFkQ+pIe/gnjtxnvtcH6JDxmeZCMPCIpnq+bfqAFc3krSx/GbNOtTJQ4Jj46CvHzdEmnF7My/XYzo1L/n4GeJUvf4nqu5hmBE+FwfPiZP4pj6QKs822x30YAhVVmzJts1NWl2OA8mTf6SOE4kkMdI1aZE8LZfLzhGInpr1lyLwQNoEN4fGC5o4XkoNEKNyeP0WWmZhFuX3h6YpG1axVEOUv/TfcJqqlek5ke9ap7NojpbPeL3I0F0VoiPbSs4KD6BqolFCla5u74PQcx5lX/A5zYrAL+Nwlk6P+PeLOrDXc7yggz2JoEtiIA0T40wqJPVbFswZ8P8N8Ge/XXGSqhfTLRLfNs2TXM00rwjAYUeDqSJW75mGzWXGuoizkKPn4Cq47Capa780bNm9jRLtxEmQNp6xt8hFl8giU+103j4N/wNV/d/WPEWVQ9157oFqJTYKj574ivTNvCwYGkqVn1KzG8l/ujAGKLiyYBmd4mrlsvkWfOzSOEA60Vh3IPc2Nat5UKnqHbNjAVO8yoNzT6fMio+X6i9ncXYZVeK/Q+3N2iOSdA5hVDO3ZuYGmHKxpemmG8d5XyT3qbDTogC7lRfhDaLqaRoy08TTdu55Yat+WUmVcha4SxVYFqZNo/6DzBwvcTDz3CYNoVEbT1vU7jPszc2b8o+kpKohrh0QfVqnZrBIvCqzgThXLmVFz9w8XW8ZSb3oMl0l4hW96UWD0thN9u01/vQ8Y8QrilwME17IZIzYbVafHrepHfESZHGAdqLdrJY1njzzkJslh9+XL2bICJ6SOJFm4WkdmtHCkO/PBFX7w41L1kMVX9cuSY+fEVvHHjscxgCJmU4xmz1WA3m6LULTdwqH+CLllKS2x8v2/ET8afqp6RVNkeKqmpUka3JQYmpCl0yz2X55mJ3VM6gE040cJ88GZxZLfB77yJKG09C3KXY3zn01dbd7xwOJEBU8NVu+E6+XZ1lo8tOTVZrk5d6JphhWGK/qL5nihRpUr6GFWV1fhBA+XLAw0K/j1MU4Kz+u8DLfEBwWxdaW70c+twWodCP1WJcqvq5hAN7RdIAXp5K1DEajCzNrmX4UBBGIbRI6CycA2cFDoG6aeiEsMA1sO9t13QyWoRtT2/c2wQaeTm0xK6F9yBbC8+M0izxmUmozL+LZxAzumbJNsSiaGfwNVCE9drMgB8Ub84pvXpqvY+IGhfiICJtW/hvSrNgOoyRySdlMs6BVwlttYOSVn2jErpfMnBL5xq8DRiCl/GBb/T4TSh5Wd8bPzvK+LJwmNyJlz8JNXjfjhwQNK+ZfPTn80lOYVC6jqRWqWndfWwYvJpYdG+AKZjaJYL9M05CPYJZ4YDnZLIJXh3/zZ8DbiYFsxWEtWIvgHdmuly/4rAArWPGLqxzSNgeObGiY+tGMn8jLkyhj9gWZRQGRB+n97581XZSmJ9ttzg/mJXk+4yX8vDac2aTx1UWexAWy8jw/tNrWL1O24vnkKEhKRGFaxzDBUGJe/XsgBBLMmO1H4gfeFfTE5wuGHNXNIn/KGZV+8fxOsXPNleuB3IpBihXr+/s5uFEEN8fCFpYSL4CVMWUwELF0ZlsYJz9WQvnoMvCKXO6xajrhSYYsZG7q+vDqs2qxiPESqgaReBHyFJpFfCgODEa0hM3luzbBF8WVOFVHrfUq/cHgzZpZ5ilZeExM5bgw327QLmyala2msXSuyMK2yyrA/c3t/DBB/TtLxVC5nc1TZKKzjSdmQOdF8k0zvnb5QpJ/6ZUlYsuDQBMTHVPebxTNNo0LFWm4FY/iAwZiPLiDTyeMUxzzmcKeEMNBWv2XOPLiVo2BuhTG230JZIAomsIkhhlvKFq6/EyNblz8taeHd8CxjcjZwjGZ2ik/8MdAYtug9Wnnw/1chGNiimZu3cqS0py8AZUz1coTmgvlOivXSNlZakNPMCqlmS7mrP1L/wiM8tiKWNbiWE+e5Glaq3m3FfeuBmyaJinHKdSxYViWZZRzixD/w+LfCOGnEMvGJonh5fvfgd8Azcp2ZUs+oN+TxVIfBC+kS9OsW73LoUyT0OOt+Gmf3ky1dKH5QEuZc2kKEFDv/Ud7VFHJBlYua35yl/lx7bdf4/ZOEAMuyTg/nUirGp9ujQ7tOON/gqfDo1B7Ms81+w3PPP/AoT3x1Cj/yJxtg+QiMUgwvRaBxeRY6m/EXwESQkzXwbyHZQ3WI24SY9mgT32M+F6I6mPxD4toTZKU0D/6tcwRvwYedz+cMO07gDXiX4EWx/U3hx5xr0824h8BiEBcJT08c9hB9xF/CRo1DRFg2sRR5xOAI/4l8JBIfH21dLGT+CNV/zSQEcc6of7N1ut8A3XEvwVQV24YbBMeIx7Nin8biKf+sjAl9Nc+kz/ij6MMkvNcxN9+kxHnICLRlyaNRowYMWLEiBEjRowYMWLE/w/+B5v8SQ/QJia0AAAAAElFTkSuQmCC;" parent="1" vertex="1">
          <mxGeometry x="520" y="230" width="108.31" height="30" as="geometry" />
        </mxCell>
        <mxCell id="mvL4miRv9UCeCVw3CvBi-41" value="" style="shape=image;verticalLabelPosition=bottom;labelBackgroundColor=default;verticalAlign=top;aspect=fixed;imageAspect=0;image=data:image/png,iVBORw0KGgoAAAANSUhEUgAAAWgAAACMCAMAAABmmcPHAAAAOVBMVEX////LODfLNjXOREPMQD/ORkXHFhT++vrRUVDNPz7HGhjQTEvLMzHNPTzPSEfJJCPGEA7TV1bLMS9Si+cDAAACa0lEQVR4nO3dy1LjMBQGYY0JMLlyef+HHdbj37bMER0KupcpqY70VVY4Ie2PIbV7H+C3JDSU0FBCQwkNJTSU0FBCQwkNJTSU0FBCQwkNJTSU0FBCQwkNFaGnwf2UGZWzJOjpcXBh8nQDZgweUTlLgp4e2uAe5pNPo2ccZjOmw+gZvYX73g36afQMofNgoYWuJzSU0FBCQwkNJTSU0FBCQwkNJTSU0FBCQwkNJTSU0FBCQwkNNRz65fh/13Pn4G7o83U25CWtq0DfZjOut7SucN8a9OvsQfslXq4CfbjMhrzGdQXo42zG5ZjWFe5bg37q3FuB7t1bge7dW7iv0Hv2Ct2EXhostNBCCy305pmF3rNX6Cb00mChhRZaaKE3zyz0nr1CN6GXBgsttNBCC715ZqH37BW6Cb00WGihhRZa6M0zC71nr9BN6KXBQgsttNBCb55Z6D17hW5CLw0WWmihhf5KaOLLQkJ/9HaeNaV1QufB3+oLnULvSOg8WGihhV5N6DxYaKGFXk3oPFhooYVeTeg8WGihhV5N6DxYaKGFXk3oPFhooUHo577aqXNvBbr3LBFr7N7KffMPR4bXYmFh3BterHzcoHSWyt7CutpPofbuDcv6P24w+CyD79G97l4/7jv8Hf3dExpKaCihoYSGEhpKaCihoYSGEhpKaCihoYSGEhpKaCihoVrvH8crhbklaOLMo2sHoGB16n0YGKAn4syj631jlbok6c4qzxt/XQm6kNBLCQ0lNJTQUEJDCQ0lNJTQUEJDCQ0lNJTQUEJDCQ0lNJTQUEJDvY99/Bb/N6l9dP47tOu97/OZ/gHkXY3VRDHjzwAAAABJRU5ErkJggg==;" parent="1" vertex="1">
          <mxGeometry x="740" y="240" width="51.43" height="20" as="geometry" />
        </mxCell>
        <mxCell id="mvL4miRv9UCeCVw3CvBi-42" value="" style="shape=image;verticalLabelPosition=bottom;labelBackgroundColor=default;verticalAlign=top;aspect=fixed;imageAspect=0;image=data:image/png,iVBORw0KGgoAAAANSUhEUgAAAOEAAADhCAMAAAAJbSJIAAAAulBMVEUeY+7///////0dZO0QXe52m/P+/v8AVuwAU+oAWOy9z/fZ5fv///wAWu0AVenP3vuzyvfs8v7H1vqatfYdYe6NrPRejfHz+f47du1rlPGtw/gdZOoeYvIAUu4AUekAV/C/zvvT4P/G2PeQqvegwPdHfOvl7Pspau5cj+uNrPWNrvDw+v2Bo/XM4fV4mveUtfEyce7k8fqvwvsARemVqvjc6/9ViPKCp/Xc4/sAWOVqkvQ9e+24x/gJZuaFe/DSAAAHy0lEQVR4nO2cCXfaOhOGtWFjsMySIYHINkmapQu3TfLdkCa9/f9/645MwKIXyOaNfPP0tKcoxkfvkTSLNApjBEEQBEEQBEEQBEEQBEEQBEEQBEEQBEEQBEEQBEEQBEEQBEEQBEEQ/8cAY3L5fyNjuevZ/cTEMmawgBmouzsloAKXuntTAmo0zDnr6483S4M+54IvGUQfXKEghfsIKdx/SOH+Qwr3H1K4/3x8herg9LT3xOlfww8YebPAz0l99gEVYgbM5BN7qE/5LrZlrUFhg3Y+Bz7smUZo9c7y9PYsZkr23IS3pZn6eua09H1Td59fhzpw7CQPtTSQZ7vISMmgH7oZsF93l19JcOAICkPFYhBOixipeNoXrreY1t3lV6IOhCeWcI6uALhw+ARS97kIV48Mgj1bhzhLvXyWeoqBdCcpH2mmX+7xwbh7q83gWYXq5QolCx7AqCq7/wKKVGj88/OUxQ2ztUUqVBdcXF5BXGX/n6cohXYFpjdokviFYo062yhuDKX6JLKXTAJoUtxT4CzVR+g3rV/5HDRpKT6n8MtLZ6lUrVDYoAHd668m2VP0+E7UxnE9rSv8av2hG7XdbI7aTNwert7zrUk5JMx6vTy97SmcX3/lLb3udxbrH6e9PAXu6M3vkSxcKvTEMKlYxg6MynOj6RRTIzBr2RP2HLSfPxNty4Bhks8FwT83Z566UZYEiXYe1g95Y8x63ZYt88/o49UYCi+8rG8Qg0Dnx7kKuwvOZ1/jbJPaPfFVRoJ7BqzRTkqJmfDys17kGibpra3fOUA9BlV3XO4BVGt44rQAmhr3ieEkZnrkthw/xHB95n5nbodYort3OfNZPQqnntMLcazMw1oGzDEeMev+UBvMgIWbAQOMQ+clfGLXnGyHa9/z6kqUp0dC5P7vNgD0FuGqrxwzYAmOaxBikT2t3IUIB76UY76UjMklf8ysSsrX9gb4XNXiMaR/ZPu05FjLt8Q0MHYnwmIMIeDrfPUZKFwFSByDtWKVlKmUp5BNQ3cB8PD2f3J8OPv7y2h2eK1SDRUF4+UplKm3NkvF5Y3AEI4v/t7dzqNq4pwSxzDorpma0C5ifKGwT9g/3yaVuMgyFZ7wXaDIznrosG8KjZrtVIgZR/h1KkvP/0scQybXHeJ/FPKjdgUr0Srk5Sg06ZDvAIOGe8UqMKjo8b0lqNBnGhUuCYVnVwrnziMjBUFfoCdYttz4VmGYfydceHyjDjGY2D6O4aBdurpM4TdnR5v3dZYB5w1iip7Z2QLn4pNift/dBR8kLB7nDSjpaZZC1OVCbFc4r6Yw1e/97K74OXqQcJ9/7t51lVG/75yW7kwZ/cNtGWqM2u6ct9wtIm+MWWS4YwhvH6rZZYQojZL2E6nCbukoaq9IGWaHbReMt5hOnAZbQQtp/g37SIZqzy/51jHsJVXsv8U23X0jy3esN2Z10RJHT/nR9+4mZTacx+CmV019g03f1Vt5qvP+s02Bnkb+1X1n6+jZ1Os4lZWc2Bi0Ea23Msn4fOjw2Jp9Obg9Ob1cBGkbF6GNxweHUVzNkRSO4aN4I9tWmMjCz9AT66mF8/PLWdsmFpJVYGmMVI/b5lKRhNwLxULe6Y9faaXbbuqwCoUeH0zuZ63J/DrVOq7yDANN3rwKhUKMfDRD2VYlM1VeQZFGjZ/v3/sJ+WLPFawfgSrv2ACDKxtel66w79d0dQgMa281ikUyru2E1LD0iJcvcZjUdf0LWBz1wh0ZTkFc1Hm9ze/syuEKAPOpblqjwCwdLHcMhZjXerJmXX6pttQT3Wpy+W2guyh5HYqLWgUyltxsCZELwLOnPqcV5fJb0f+U5y2yOoxx3VUKi5qQcrC7vsdRvfpsXFOix8ckUdV/1Tv4WZqlEaG431yLUilqVJZAVHjXgDoagN3nC+8h5NcNqLwEk+w8X3gPYvTQiGov9ShKMKdoZMRd0oSaRMyCo5sSMij0FPyK1VRD84dCqe+5V7hCjOcnQfkHoC8gNiDbg+LHMOT9dhNGcIFuFZtf2GAt7NYezDiYP2rQ3osXCnEEcf3RTI66KHSW2tKAJnjCHMmi40IVClts2SiJIPWAF+MU0bdiSj1pQDjqYutmxwVtnHoeztHWtBGxjINkoGY7Dt1foxCtTMs3DVMY21FMbwtRGHJxGDTtQl4GRuAdvqs65CXjJ+wR9q+HurVsBgOs5OydW6fCy+6q1S1lGzI26cn7Yhu0o8NINyIY3QBIyeL27Tvt6SzBJdiYaHQD0G4Jm9iFrxvLrJoNnUT3uum/gE+C0eOBvcvNX7Ug7Q08/OdLGxo9fsy6RQnx9DwrnniVQrQwogMa13JD1+AKAyDBH3fF67w/ztHuRZtVU+ZUBJBMspK78LnUX2QuEGdob5421kdsxKjosbeobNopMVt+QvTHqWr4+vsTI2NIxudH/NnTUxH2vqsAqii6LxZpYgM6mt9e7tR3dDIDW00ayz1Zf/9FJb8n573Bok5vVQmdrb/uP/fXid+cm6FvA4dHKe1HcjwZ/Tg+6dhfuNPpnx+0Lq78RKume4YXgHNVGntVFpS2ZHeD/UArBQZ93++6+/d+jK3yXlSkrSyJLQzNfgHW3i49giAIgiAIgiAIgiAIgiAIgiAIgiAIgiAIgiAIgiAIgiAIgiAIgiAI4oX8C0Vfl5yi0orgAAAAAElFTkSuQmCC;" parent="1" vertex="1">
          <mxGeometry x="930" y="227.5" width="35" height="35" as="geometry" />
        </mxCell>
        <mxCell id="mvL4miRv9UCeCVw3CvBi-43" value="" style="shape=image;verticalLabelPosition=bottom;labelBackgroundColor=default;verticalAlign=top;aspect=fixed;imageAspect=0;image=data:image/png,iVBORw0KGgoAAAANSUhEUgAAAOEAAADhCAMAAAAJbSJIAAAAulBMVEUeY+7///////0dZO0QXe52m/P+/v8AVuwAU+oAWOy9z/fZ5fv///wAWu0AVenP3vuzyvfs8v7H1vqatfYdYe6NrPRejfHz+f47du1rlPGtw/gdZOoeYvIAUu4AUekAV/C/zvvT4P/G2PeQqvegwPdHfOvl7Pspau5cj+uNrPWNrvDw+v2Bo/XM4fV4mveUtfEyce7k8fqvwvsARemVqvjc6/9ViPKCp/Xc4/sAWOVqkvQ9e+24x/gJZuaFe/DSAAAHy0lEQVR4nO2cCXfaOhOGtWFjsMySIYHINkmapQu3TfLdkCa9/f9/645MwKIXyOaNfPP0tKcoxkfvkTSLNApjBEEQBEEQBEEQBEEQBEEQBEEQBEEQBEEQBEEQBEEQBEEQBEEQBEEQ/8cAY3L5fyNjuevZ/cTEMmawgBmouzsloAKXuntTAmo0zDnr6483S4M+54IvGUQfXKEghfsIKdx/SOH+Qwr3H1K4/3x8herg9LT3xOlfww8YebPAz0l99gEVYgbM5BN7qE/5LrZlrUFhg3Y+Bz7smUZo9c7y9PYsZkr23IS3pZn6eua09H1Td59fhzpw7CQPtTSQZ7vISMmgH7oZsF93l19JcOAICkPFYhBOixipeNoXrreY1t3lV6IOhCeWcI6uALhw+ARS97kIV48Mgj1bhzhLvXyWeoqBdCcpH2mmX+7xwbh7q83gWYXq5QolCx7AqCq7/wKKVGj88/OUxQ2ztUUqVBdcXF5BXGX/n6cohXYFpjdokviFYo062yhuDKX6JLKXTAJoUtxT4CzVR+g3rV/5HDRpKT6n8MtLZ6lUrVDYoAHd668m2VP0+E7UxnE9rSv8av2hG7XdbI7aTNwert7zrUk5JMx6vTy97SmcX3/lLb3udxbrH6e9PAXu6M3vkSxcKvTEMKlYxg6MynOj6RRTIzBr2RP2HLSfPxNty4Bhks8FwT83Z566UZYEiXYe1g95Y8x63ZYt88/o49UYCi+8rG8Qg0Dnx7kKuwvOZ1/jbJPaPfFVRoJ7BqzRTkqJmfDys17kGibpra3fOUA9BlV3XO4BVGt44rQAmhr3ieEkZnrkthw/xHB95n5nbodYort3OfNZPQqnntMLcazMw1oGzDEeMev+UBvMgIWbAQOMQ+clfGLXnGyHa9/z6kqUp0dC5P7vNgD0FuGqrxwzYAmOaxBikT2t3IUIB76UY76UjMklf8ysSsrX9gb4XNXiMaR/ZPu05FjLt8Q0MHYnwmIMIeDrfPUZKFwFSByDtWKVlKmUp5BNQ3cB8PD2f3J8OPv7y2h2eK1SDRUF4+UplKm3NkvF5Y3AEI4v/t7dzqNq4pwSxzDorpma0C5ifKGwT9g/3yaVuMgyFZ7wXaDIznrosG8KjZrtVIgZR/h1KkvP/0scQybXHeJ/FPKjdgUr0Srk5Sg06ZDvAIOGe8UqMKjo8b0lqNBnGhUuCYVnVwrnziMjBUFfoCdYttz4VmGYfydceHyjDjGY2D6O4aBdurpM4TdnR5v3dZYB5w1iip7Z2QLn4pNift/dBR8kLB7nDSjpaZZC1OVCbFc4r6Yw1e/97K74OXqQcJ9/7t51lVG/75yW7kwZ/cNtGWqM2u6ct9wtIm+MWWS4YwhvH6rZZYQojZL2E6nCbukoaq9IGWaHbReMt5hOnAZbQQtp/g37SIZqzy/51jHsJVXsv8U23X0jy3esN2Z10RJHT/nR9+4mZTacx+CmV019g03f1Vt5qvP+s02Bnkb+1X1n6+jZ1Os4lZWc2Bi0Ea23Msn4fOjw2Jp9Obg9Ob1cBGkbF6GNxweHUVzNkRSO4aN4I9tWmMjCz9AT66mF8/PLWdsmFpJVYGmMVI/b5lKRhNwLxULe6Y9faaXbbuqwCoUeH0zuZ63J/DrVOq7yDANN3rwKhUKMfDRD2VYlM1VeQZFGjZ/v3/sJ+WLPFawfgSrv2ACDKxtel66w79d0dQgMa281ikUyru2E1LD0iJcvcZjUdf0LWBz1wh0ZTkFc1Hm9ze/syuEKAPOpblqjwCwdLHcMhZjXerJmXX6pttQT3Wpy+W2guyh5HYqLWgUyltxsCZELwLOnPqcV5fJb0f+U5y2yOoxx3VUKi5qQcrC7vsdRvfpsXFOix8ckUdV/1Tv4WZqlEaG431yLUilqVJZAVHjXgDoagN3nC+8h5NcNqLwEk+w8X3gPYvTQiGov9ShKMKdoZMRd0oSaRMyCo5sSMij0FPyK1VRD84dCqe+5V7hCjOcnQfkHoC8gNiDbg+LHMOT9dhNGcIFuFZtf2GAt7NYezDiYP2rQ3osXCnEEcf3RTI66KHSW2tKAJnjCHMmi40IVClts2SiJIPWAF+MU0bdiSj1pQDjqYutmxwVtnHoeztHWtBGxjINkoGY7Dt1foxCtTMs3DVMY21FMbwtRGHJxGDTtQl4GRuAdvqs65CXjJ+wR9q+HurVsBgOs5OydW6fCy+6q1S1lGzI26cn7Yhu0o8NINyIY3QBIyeL27Tvt6SzBJdiYaHQD0G4Jm9iFrxvLrJoNnUT3uum/gE+C0eOBvcvNX7Ug7Q08/OdLGxo9fsy6RQnx9DwrnniVQrQwogMa13JD1+AKAyDBH3fF67w/ztHuRZtVU+ZUBJBMspK78LnUX2QuEGdob5421kdsxKjosbeobNopMVt+QvTHqWr4+vsTI2NIxudH/NnTUxH2vqsAqii6LxZpYgM6mt9e7tR3dDIDW00ayz1Zf/9FJb8n573Bok5vVQmdrb/uP/fXid+cm6FvA4dHKe1HcjwZ/Tg+6dhfuNPpnx+0Lq78RKume4YXgHNVGntVFpS2ZHeD/UArBQZ93++6+/d+jK3yXlSkrSyJLQzNfgHW3i49giAIgiAIgiAIgiAIgiAIgiAIgiAIgiAIgiAIgiAIgiAIgiAIgiAI4oX8C0Vfl5yi0orgAAAAAElFTkSuQmCC;" parent="1" vertex="1">
          <mxGeometry x="930" y="340" width="35" height="35" as="geometry" />
        </mxCell>
        <mxCell id="mvL4miRv9UCeCVw3CvBi-44" value="" style="shape=image;verticalLabelPosition=bottom;labelBackgroundColor=default;verticalAlign=top;aspect=fixed;imageAspect=0;image=data:image/png,iVBORw0KGgoAAAANSUhEUgAAAOEAAADhCAMAAAAJbSJIAAABGlBMVEX///8IsdUNgZv2lCEHJC3w3zYAfZgAICokNTz2jgAArdMBsdXx+foAepYAABLIztAAAADP09U1RUsACxqnrrEAGiX2khj1iwAAHijZ3d9kx+G01N0AABUAdpM5vdz///3a8vjR5en+8OL6yZpiam7+9+/95tD3okUAAAoAFSHj5uf4rV/5uXr84cfq+fzv3R9lqbo+UVeTnJ/4qFP71rP5tm/3njn6woz2mCr4sWms4O42kafQ7vX+/fOM1ehLWl+EjpH7z6X5vYF7z+X82rp/tMKWwc2i3Oz5875ioLPA6PK/2uH9+uSny9VPwt68wcP27Jb053Py5Fn2647x4kj476n79tH58rj27JLz5mry41d2gIQoPERaZmtf2m/JAAARBUlEQVR4nO2ceUPayhbAB6TRQHCjBKrIpkBBiSi444Jr1au29/Uufa3f/2u8cyYEkpkJ0bZmEh7nn9JhoPPL2U9CCZnIRCbyfydN2Qd4Y6m2M7Wq7EO8oVQ2VH1KV3cqsg/yRlLoTelTKLq+WpB9mLeQ5q46ZYm6eyn7OL9dyu2MPjUUPVMryz7Sb5XKnmrnMxnPx8gde/vqFC/qVG9M3LG6K+Iz3XEcsmP5gDNQm6mq62F3R4EDsox7oXbHjtABWXfshNYdq21vPsrYDqc7VnY8DNRuquvhM9XC6ov5TMa9kJnqpWuGcDXV/Y7sQ79CquuZ1yjQYmyHpa+qbOg/wTeFproRCndc/Uk+k3FV9vE9pemaAXUQ1RLd7TKo+8Huq1xKNEDL6LX1jb3VDpXe6sZBex85RWpcD647VvbER1Zr571yhckGhUq5s9dWBVdEV4PaV3WmeAMFvJ1L87yV6mVvb2MHZa932TQr7kLzXOfjLvRVMkFcRNAj6erUDq3HKpd7NTVjup/e98dMZve8Q9mrG1OcJtX9oBVy5R1OE7raRoJCda+WEXsceOfueRP2VDptllHPHASpryrwGaIfMKrnu0I62779DdzYXOcY9eD0VXyPpGewPil0aqPxLMga9k/VGvstQSnkBD0S9SJQ7EuLb9iIE9SOzjEGYEBe2eAdUIfCpLLKHXekqHqvQArnAneUa6oCB5yio5eXNPecvpoYkXmHljkgF/RIeqaH499XNYcDFii8CwcZDl3agFzEoe9Xf6H21tF/exwi5B0ZmaNyLugBcRpReeF0RiiZPUgc/AXSM773VYWeKJCo58LzvUbwGpX3BcWq7u+AvMnlLno6iKG9X1CgiVIrCxF9HZC79Egq5OfzXwVEZyyTigjRvwH5qngIg4Drvw6IJFWxFvF+lS+E4jbQG5C2FDpFEDe/w+8CQxV+gT+V6h12EpyZZlYhlbkDAtTuwV6nWi5XKpVyudo7b/Mt03A3GGqVq3VV7DbutbcnjD8W+VCjbhCy4wqoqu3Vcv/yHxf6MbHSPN93g9R3K2zMoiWP0VrxgTASiVzAHx3VdgK9TcieCyCW1TRCVDsb7d19lN31vUtcKjTbLoNV/MIN+z+gYrK4jiqKH4SJRDx+SOxlsr5fEZQi/aPtYgtU6axnhhM2nY6mzpsF99uLYBSF2uD71XPYeh9NRqP+EEYiiXge3dHqWiH4VcWAlK/QPBBOnDL7qxXXO1SZS1LuXw+aJUq3wOcfITIuFa0nSNQ9cQLr32/BPliIjz0TRseeMLDqZbJKvx0Lb+1KUaL+EqKcwN9WwfRqhBwIS4DdKo1JIxMDjtXKovs4+johNd1snh6iVIF+EybiiUPaApch7IgOv1EgFW78wm+rVcSJRu2RcgafECsdWXx+6zASiee7oAHLYbgDksuX9Im6eiku98BOyzRDRKPSCEGPF4b4ZgUcu+CWQLi9q8T0Oecqdovadd8BZRGCGpcITmW4AUuTFF5epWLBwFwOcECsEa7sCpREeENO0B0PHLlbbZJK7RWNIlsTmROo0jVZTsonLJJ8PF+k884BEpioOH+4I0Jz3x5+HqeIGuiPGFHphHlNiyci8QvNNmADv6q0XwVIe5NK/yPmJPghqiDPkSKb8JF046jKxM3gCSh152c6RYicl/gh8ympe5ohkvekJZswfkIO4/3MgYUcuKO+W3Atw0cRwsegcMis0wyRpGDJa3KdlE14R5YGmeMRM8dupkqa4ip1tIArls27atfJvuKUFrmXTtgl+eECdcfmwKFeKVAcId/yoESLKkekJNlKEwmD5O3AWMiRzs88ToM9IBn0EJZomvRYqhlM9sgb2Fe5dYvmrWDRe+Zg+yrp1JlBpBOSYsQpCU0TF3J6Rt/oNMvlyx50wxzfFN6cgOTAAJWYdOG/leZJMc4gwgr2VUzX53yKpOfsl8wnhUpRLjkkSwyzDMKuk5Ay9/sqmznSKuX40+cvf3778tcfxFGVm097QQ+RfCBXDCHL7L+VLpE7jhCZ449dfILPwsBe8fjzu83NdyCbm39+ImZ6Nx2w2u8hlCvy4EwOyeUAEB4yVmox08xxaT5jg0b46R3FM2XzS4E0zbd0LNHMDAHpbzkUhFaRg2MO+iQtltX/sfEh4tdjnAyYkxyriVdu2QQfUELLbhPxyB0+DZ1Z5wBB/iTkgD40o7UGJUwwCcV+aDHSAXmZ/MUBvtv8l5SxhMEeIjogLAWNUBhLnSvojn/wgIAIIbXfQwwJWR1Kj6XifOggxszxt5Dwb2I4SzQBofR8iDzOvyewjnMW50vkkwthi2kc+FZCek0DhAZLWHTU4rDy6KpDtka74uYyRdl1KfYWjJFCP/XoJMy7+iEzosCG17kShN7C0R9Swhty4nBNsNvjrwLCd8fM6QVxRX5/aO/xLeESCGj1mwDwG3t6gddx6UPKnOaGSxcGQ3hC/hHkw3/YIhRskvW6a3aPBCvlNBaJFBnDBeZjgRsWyC2jQ84mgzBr4zWGjnjDmem/rBI3P/NGymusyIVb/3UYMQizEHnkqoAlUmAJvxJWPZje2aUgzLwh1FwwhHGDi69dNulDMrxnbroAD5saWmygkaLDC84RwUwPuejjtNPNTywNzfdszcb1/DII4fAaQ4hLzGXAe3BfNu2AbLaPRldKLM8KN5mSokOwyUd2qcskfarXISKYKBdHMbuzaoUVNp9IIeRCJ8Yagw0/iPjZHNN8OybaEXt0NEl2SMPFVjmEgnwhUiLmffL3fzc3v37CuSGrQVQhV6YaAk1LIKRmyixBemA9EcdvBiH/fC7Y7rw4Vcj0FYrASCURcqGT5hBuDdR9g19wz1toFH2OUyFntrIIIwmicUuQHvLsovl0ygOXBinOvahK5eKtJEJM+pwSb4jB78Sswfa4JuAVF0ghPbLpXhohhk4u/sSLIjuNuBBGCZ/b+RpOGiEOLtgmkdrpEo8oJoSK9J4tz265mlSiDuMX/MQNFzXeFYWEyWW+huMrHJmECWgwOCVG4oeQMtjNIkLI7FxMEVQ4MglRX1zWh31dYrCIAkKIMuxYkarwWuSwsggx63PhNJJIFEkxwY4EWEIEvOKKsxbRBDYqkRBOzlWi5qyx6EGIJsoB4v17kRfKJIRKlKu/kdEAcvs6Q6hA4SIABOyisDCQSOhSxKChksf48CNOQiVaAh/kWfgSTj4hFjF8xsBwc0egzxh8xkGYbGnEEFSpkB75ilQ6IRok1zFRdOiaunnrHRthMrqMP6IQtBl8CRcIQqjdRHaKtahGNCvSDgiVlSsNSzVBYXbEj+GCQYjFtvi9BFhqMU9NtU+oJG9LzofwbRAll9pVOiE+LszNvy01QvN7h6b6iAWooiCf0VoRaQpKOMNNg7IJMZ4KXRGfy7iBo909xvOktBK9Ktl+BcMCXrnGUfmEdGb4KEZMxPP41GL3hBQf4JDGVVRsiOiEggIgKIR0oOb2diKeuOkfr9QS6w8TpOaaKAJBaPYT7u/Gl7pEu44K/c8Ug2sUA0aYgOqNLbYdjNQPXY8PJQ57QypohBG8F9UdcQXyouHLQEruqT44hNgNd+OuzjiKEIo1bUQYDQohLd9cDXUEofISwGAQRmjj+1pC9EFvQF8IxfnOgQGIRl64z5VQOYJO0hswmvSB0KVqcSJCUhCmfjfC5K0mul3DXQeseN5ejCXXQDIAwa6QH9y4Eq60sI/ylJWjkh+AxN7uuQp2hXeCyY2IUFEeyOhKxtRz9N4nPpSbiJcesSvknVFEmETNjKpFzcsQvfaRD0Q78dQi/uzyhL0QCaI5axrohKF5FDaKjsvQMvwFBCk+eqkRbxd2885dLCE1vWWvGJP0zQGdcufljvSuL/OgooOQxkaNG3izBqr4bKA2uUl4MOJvZwx73nAQJiEJCmdRTr6WDznQVTRRSnCqsUiVPfiPGAaESvLonv3/BAJkoEMpujT1Q62daDbGAWHyCFIE/o8zo/lw4ihd7hIjQ06C/giaHJpOaxIqySjyLbuMMgYGSieOQZCTyGg9mr8s7T7G4wkkVBS0T7J8NNpAleSt/xnCTQxPd4wcgjaKkESJpuCoDfgED9U4HdDPEsZbPAu5eOSkCJHpDn8oSoxrrxQPGSIgBjqUw9HuiIxLd3TnfSvqoT8oxYNjoDbx6qsS4JAXRPPEC0CGcBPvvirB1aUCA6VxNqjiWch5EkIhFzgHdMrhyEIOdTjSRv1rcn9eRhdy8ZET0WCUMN4yqq8aRagovkxhfou4u+MIwuRtUfa5XyNufZUrYdBKGG9xKeRcCJWkvCb356WYF7ijmHBFapP7CyJwRxFhcEuYF8gJ6448YTLQJYy3sIUcSxj8EsZbnH0VQxhqAx2Kva9yEIalhPEW24DcRqhEw1PCeEvRcscBobLSKso+1e+VfuawCMNXwrxAbtAd4wY+0yVzTv+Wol1ETMJkWEsYb4G+yiDR8cgQbnJnkHHJEBOZyEQmMpGJTGR85HRra2txYeSWZ9zywafz/H6ZSWezH+dGblmsZ7Pzoy9CkGVmOhab9SDELRPC4MoLCGc+zs6Ot5UuzIGEt+N9AWHIZUIYfvk/IQxvoHyBIGH97H1fMGLSFw18T2vMvbctmFvYL6CLT/0/uYjbEH7GV0HCWD1lyjyCxXLwAux27vsM5EFY+DELC6Dms/mU+cIuT3RxmxD6J1e9zsFyLuYPiotQQks+Nohltx9OU3V4gYRWTdOIwYv0qfPzP7IxWAbdzcPnUzzhLLw94w+Ki4gJ02upNF2xE5KzFO5xKPHpI4KBCgNOmE2bMm8Rxky+6ayDsJGFV9kt+8cXUYVZdL9AE2ZP10w5HRBSvlT6FG1yWHmf1WE5Z8stTylLhcEmdGYLi7AeMyOqjVBDm7R74haqsE5fBptwjl1BVa1Zod/WPVElpgbbn3IDFYaPMPV9sGAj1OqOcLqV7gdSEj5CuynaO2AaTi1PHAZSEj7CnO2sdsLGtE2JNJDO9I05ZISOlOCYYthyokOFYSNM2UtJByFVonkBFrNDLwwdoT3nMZMoGk6xOrUHUhI6wll3wkE4pbkwNdgVWEI8Z+41hP2cuLCQcqiQzDoypSWoaMmEp2nHOYk3oYYs6ednzIVpzfGxFN89pqQTbsMRsov2FS9CM5xms04VkrU031pZCeW3n/o1skBDvr0w9SSkLQYtzWdsPT3VVppxxIVcTDohqbPpz5PQVCKjQtLIUeN1fjn6gHRCNNNYfW244E1Im317LqTynUagM/uSeSlkExJ63NTw4nsT9k/uDFCkUafl3rBiJ2upWCAIaeaO1dPWoOwFhNQT+33hULbpF6VmzC/S3sfqsWAQkrOc2dHXT9cGk6jRhDQn1s/YL3o2jTKXff7+/TSbG8wKpBOSs4/mUYZzGi9CbPZz/O2o075ZptPpfrzNBoOQbM9nmWmiByEo0RlT+vJ93j66i01/PJWfD035sJXDOPFyQi2VFt5RfPqRS1vZMp37sbAgvy61ZG5tZjZnzrxT5sx7ID9y/KibnJ25fNHTaWwW5+ezseenQFTeQ2l8eNqm9y22QRq2N7gFuptdsL21AJ94/4FuCBThm8iEMPwyIQy/jD8h3rqZXvTeF17BloptGsdL0sLpzRgJba/n3YuD0MsCqjA7bm5oU9gHOj7weD43dLI9P/C6bdoD18cszgBVbvFsrtGYO5tJmS3weHkhHdVM16F9mq2b87gU23aFWxrz6ZhD0mP3yFxjK5Ud8mVzp+F9tNhV3i/O1tPTIOl6butJ9mneRubOnn9MT/94Phs3A3WINobWOZGJTGSs5X8LJDNDkMJIPwAAAABJRU5ErkJggg==;" parent="1" vertex="1">
          <mxGeometry x="925" y="440" width="45" height="45" as="geometry" />
        </mxCell>
        <mxCell id="mvL4miRv9UCeCVw3CvBi-45" value="" style="shape=image;verticalLabelPosition=bottom;labelBackgroundColor=default;verticalAlign=top;aspect=fixed;imageAspect=0;image=data:image/png,iVBORw0KGgoAAAANSUhEUgAAAOEAAADhCAMAAAAJbSJIAAAAhFBMVEVbT//////08/9JOv9YTP/5+P9hVf9XS/9cUP97cf/8+//29v/y8f9UR/9OQP9NP//s6/+Qif9kWf/Myf/l4//e3P+Ykf/Dv/+Cev92bP+jnf9nXP/Rz/+tqP+xrP9rYP+5tP+clv+nov+Kgv/Y1v/T0f94b/9wZv+Fff+9uf/i4P9+dv83LY8BAAAD/UlEQVR4nO2c63LiMAyFc3FwCtihlJbSGy29b9///XZhZn8Qy5BkMpvVyfmewGeknFiKlCQhhBBCCCGEEEIIIYQQQgghhJB/jK1hhj5Q7/xcHLOBkzhNj5kOfaC+KesKM/gYwik0M3SF+DFMitEpnKMpDLwUTmFSd5oZnMLxOQ1elsJ76QhubbzT6Af/bQHvpfh3GoeepdVdTSCa07jbukCwLDX3dZ9Bi2G+CARiKaweQoFQCv2jIBDJS92lJDB9ckMfrC/sNnSZP1z5oQ/WFyYRXCZNFzACE/8uCSwmME9h9Sw+hK8wD2HEZe5gctR+iAKv8qEP1hemyiSBKw/zEPprSeDMwQis1mKO/sC4jL8RBb7AuIxQEu75xnGZpegy1zARTKqVJHCOc5fxsst84rjMDt1lfkSBT9XQB+sLu6y3fw+8wwg0ViwJM5gUTaorSeD03g59sL6onsSHEL4kfITJUbsRXeYBx2Wc3HjCGQl2Ykk4XcK4jJdd5gvHZeSScOdNyNBn7YSLNJ7cREKhRlOKJWE6KwSm86GP24FcLAljKPy6lsslIY5CH8wigCmMNJ5wFFphFuE02mYxXCuXUagwF0vCk+j6jh9pPOHE0L22F6hKYaTxdAZNXurnHQRqUpi/dRGoSGGk8YSjMFIS4ii0nx0FqvHScjXLmqFVYeLzhtQl6rrTNGF8GyVqsrQx3F3TD3fX9IO+FcTdNQTgs3SEbwu8LIWP4QizFE5h+LZoWliqmVOpxzBt2BuYrSZDH70hXbrGBzZKJlWCLG3KjZpxsSBLm6Fn6rZjDN/UCOwYw7mmFakuMVQ1D9cpSy9VzcN1yNKdooewUwy1LWK2juFC255i2xgWE0Uus6d1lupbxGyZpTs1l7W/tIzhWpnL7GkVw5VCgWUmTQoX8rxfViqz0T2lOOvt5KnbD3Uuc0CY1w//AHZAT0l4jti6t6rL2imMfAt4g4mgsb8kgeoua3G89AcwPY2n80Rm+y9hcjQydaun8XQOuwVfxEwii5hKV9oEKvEPYKoaT6eJLGLe6rysCUTWvfWVhDHsp+gyaxiBZiLO9i9wbDQXXSZbwtho/o3uMi+iQJyS0F6IAtcwD6EJflx+AOgPYPIi5rTCcZlI4wnnshYpCXFsVC4Jn3FcRv6pBE7jKbKICfRvHi+ve29hXMbJJSFO4ymc1T/wCOMyifyVG6jxlIjfDxcKvxKeIMxSoP8M7hG+cuubRThNkKV3YAKDGBZgAsewUTK+3TW4za4RbpTAKcSP4Qh31+C81MBn6QjfFnBZGjgNnEK+D/XDGAIAH8OyJjAt0BSazcUxGzSFibHHwAkkhBBCCCGEEEIIIYQQQgghhPz//AbtqzMQZLWNvgAAAABJRU5ErkJggg==;" parent="1" vertex="1">
          <mxGeometry x="930" y="650" width="35" height="35" as="geometry" />
        </mxCell>
        <mxCell id="mvL4miRv9UCeCVw3CvBi-46" value="" style="shape=image;verticalLabelPosition=bottom;labelBackgroundColor=default;verticalAlign=top;aspect=fixed;imageAspect=0;image=data:image/png,iVBORw0KGgoAAAANSUhEUgAAAOEAAADhCAMAAAAJbSJIAAAAkFBMVEX///8bHyMAAAAYHCARFhsNExgVGh4AAAr7+/sACRAAAAYLERcGDhQTGB0ABw8PFRrV1db09PSXmJmRkpO2t7hTVVceIiZhY2WvsLGkpabIyMkyNTjb29yVlpd6e33Oz8+/v8BNT1Hk5OSJiot/gII0Nzo7PkG0tbXp6elvcHJISk2foKFmaGoqLjF6fH1iY2Xy0XmBAAANRklEQVR4nO1daXeqPBDWiYpsKrUqLlW0LsVq7///dy+4VSTLJBBCz3mfT/ecK5XHJLPPpNHQjmAxC78/l6fR/nweN5vj8Xm+H53iz+9wtgj0f71WbKKP09wCAKvntVs+ad5AiN9qe730f/r7ePi+MP2iKtiEP/uEQK/daXJBfNd2APbbw8b0K0tgM5244Hg+n1sGHc8B99/0LyxmN/rxwWoTMan8crYt6CyjrmkKPAThCMBTYfdg6QFMDjWVP91wDU6/ALs7+gD/ItNs8ljF4LRKoHdFG+BnYJrSM7rTM7RLo3eFB/OpaV53bLZgCXSCEjoWfH6ZJpdgMAFPA70rbDiZViCrdenbMwsXRiYP5OoI5UkXFvrmOC7WFfC7cvxnwqQL4or4pWjDsnIrYKpRvtDgQbW6Y7CDSvklIHBeVcavuwQd+k+EDsQVbdXItg3wS+HBewX8uico4jwUA4GJdudqZlcrYV7hWTO9BLcGF/AKAp8a+X3tLcP8Ujh7bfZ4VKGO56HvaNqpQ+M79A4CQx0ER5UreQ5gUjq/4GxWhr7Cnpes/QclBmHKQcsq1TeOanMEf0GgRHkzrdMRfIBAWBbBt1oSTFCWRzWsK8GE4lsZBD/rSzChWIIJV2uCCcXCur/GW/QK+ChG8LvuBBOK30UIhvUnmFA8qBOc/QWCCUVl1b/4GwQT1a9owAW9+plqdHRcNTN8Xjdjm43+XIXgpF7uEh+2gr9Ye0WYhbxajP4WwYRiJEfwq4YOIR8E5CJwO76U8SGBY/cr+hlaXloCB/xQZmsvQ3DL/2P+OlqtZuFwYoGlW+B2bID1ZzgbDFahw/2ktcUTFNkyv0bEYroGR6aATQ7EhvnHb457zf858bZNV6Dqiff86SDcF6v0YqIP7jCT3n7n//LExTIUaULvdTsstmCVzrENk9c16Qr2lhfjCAp+Kepu6H67TqkcPWolzURQN4fbp13RqxKL+tzULS9t04aYKvtDwVfg9mksstb6LAvpDcpJDvswYVSXbETby16KCa6ExozFjOEFW3p2ipCW6/UsBx5w0spvn7pZCOzYJQlCkQbi6qKzsAgBODURm3XWGPLdXsLHO4/iz7fwEM1Wg8VgNYuiQ/i2jY9jK7UbsgXFLjcIehLVmPlCLwMRmAGuM/Z+r2PwvbRCPf6OOC0H3a/V+8fpnFa8X2kSmHD/+ndP+HaCKHEgJkgI/0+ktSipIXL8PGBd72D2HY/BcYndivifRMRV+AvQWIqdQqageWDl74craa/76xBDLKq0EIqaRM9whQ0mMuPprBQQQaTzL4vI2zoTRLEoW5RWgabYrmiP2I8PMG6vU1pOSwU7RL0ZR9gLbPfb81F1fPI4IhyZ1pr1tFjZXxhqLkriY4RaBNYiopaQq/D1Y4J5xxbjJKJO4Z9YQ5btJnJN7k9H1XLKAnMOE3FK1dkIZXpB/WVpugw05wRhzlxgFcrXFQXdH8nB+8k/irEWrg9LhLRKB8JuvgLy9t8U66GzBFUlQCf8KJbXHFucTmwDzO4QxpDu6OT8RJy2v0AyfF4qPtEJsZzCiF08w8gEtyv26DYI98WJQsuZplFRgxY06UJkH0Xv7wRkbIae5Gu+9GaMZFqUEfEsTcD4r3dkYxEyq5/7dSrEXqadMxOwEeStXp7UUkaOQkAkGq6c50oinMV+hVd+ETkeWOM5xfM2ldmknbHRsQ4ydWhPlptMWYJq/VFZiPG5kSfFvZRQ96VU5RYBQWfxnhwMF/2QL1UOoAV4+5I0789IVOiZ3qMpTugd9/CD0Y6TIGJeEfBy0bqHI/6h9agg61ERhsIE1A3uPa+PPoa2yZTFL9Buwj1Nhtei9VjCZBGxGuN2ENEmm4ss5tAOfLTmakFjg2y1EKRXxEjJccsE7pFVW52dYV6/wOpE/3j5ODp8ZTRQmgXWsLk4+mh9bzIC9Yot8mRdRA02MtAxb7D9AtsJcjG+saK3JsrwCqxKtFNvXViEc/85jGbVXoHLdTbbpwY+2F0XdX8Fcudd5D/SyDMYQ6QB6bSnxb5Y++Cy3vUB1tRMdh5WWfSMO/dZYBku0HLXKdDlpwNI8ZHIR1HZ7eOjRksw8kAGQK0Dop7xxrA2ZvcVyGRZb4rOyNXJZkuBfG9viHZEKIlxo0AqRHfZOCED+nVj+IY7Xf24McKaNDVj+I2TkP6kscd6Wn+TYefYOOMI1o8hbpeS/Z9liDyHzXNjjGVYM22BdWvPDSRBei2cQWD1+BjPsGY2DTojiN+lNbNLkdWwyRqiJU1kmlMWuFJaGYZm2yzyOCP1+LkxR37SNldjQgXSrSW7xhHJsDZpmSu+sAyPjRFyP99SAHUBsrGg6Y8aMVImMbp/TQEbqU98iyU2xV2veOkH0qRJ/EN01W29FCI2Up/4+FNs2r9e6gKbXutN0bG2XFmxUaDz3NYBP7EsX/1uEOi3hplEQVSdRA2+GmMhUWFUJ8sUa5VelsXG1gvReokMAb0sl0EZyG6w9Jo708QeQNfsX2op8b0k5mr0X4HVhs12ak2jD22NMvlo2XHJCeK7NETzIioD/pUv0lGmfrYmxQr41oJr/AzPsCaZbomWhGvzE1qY1iVoii2Ieji16NrEmsgaie6QW5vdQaIlqA6WG7oI+lFfKjNM12ib8xUyrZL3QL3MxDzzwf0f/KEindszUl19Jju5U8jsuIfsx/dbNE02H16xk5hD+ei3kJpqTSyjwkbqJorfI4Xve2ryhxRph9xiPPqeZHrXmkbb17oyPaTPgl+mRbpp0jxdyy1F9HhQrtG5SUypjFhuuuZz6YFMH3AznfJuxD6VvEwkM4YHHTS9wW8bWEXZ21Iyek1ymyYUncrT+kvZd8za0JLbND2LUbUEJ7IE2/8yzx/kh8xXOnjgay493vZlCWQM9sefGFVm3bzL37xIXmaboMtMn9GuyEYNVC53zfl5EjOGfkFgXYFMDZWuj85XOI2VxnH34UfzVp2dla5poPShMeo1O7YFYNnsZL8HW40cZ0fF66Mp9+rRVSIch2H0Hg4nAEy/zINYk3I8zNnfykdOzqSghdx+L23tvh/Z3+bCMSx9IQfbnvr139SgIMX1ym7m1Y4dlPMtGIUlGquD4bjQhQv0wC5lVtTLBz94h77lwPGtjOzUVxS7gM5qUtGmF3BRFEb/ZV7tyuHuG78HMBrO1NcyGEzjMYBUzIEGVjEsJXXcexmZ9EVExkXLBrCP23C2kSoMDwbX4exWYXZNTkCQVuBg77M6PTgj7CfiX66+YQ4szuE9vU2g1y7rhgx2KpeW//dfwjIB9oS0ZUr9Sr2GkBPTpVepOCTzkyDDXaQjpT8+ZeapCcArSaeP3utkLWxcC65s0h87u0IMbpaTtT7Z6Bpm3Jb0NKLyLlvkx8lYV7BkF34stDWII91iI5Fx4UJwEQsrYEPs51MldrVs+RtepWNFjDcVpTi/GSc+G8sX7lOVTKrEkFjeNwuLRFk7MHsprWCfKpU0YEu3uRDfM8PegZkDLCiHUAvEqTnhL9+MEOEsYdPKaHC+ylBr5cOPQWYCc99To8tyILJuM88KURz5Xfz6YdJD/bSs5Xl5PGK7Uj21eUvFpSn2dJwYu6WXdZxXDkv4qabfsL1MLHhYAddlXfX3ogOCCT3M4Ktm39BFlXQQG338WQciZ4rNzvD6Uh0bdqr3Q+ALQamQ2Tqse0jzinw2AfBatyvF0ovIzkP1wJtUUUgOllRJGuPGalqLXnDYjrzLhXjecXsoFAMvdAmx3F2yrPuAmfciBAmKt7MXURey9wGzfk69WUOl5Mn9zaTlNz2n7GudnVjAMlXJZo6oWhF0DlNS94JV7lZP9C9N2gjdryJQZthS68kKqIpfZ9GXKkPlWjv6F4K+SmhVhuqtLnTpra9EQZFhkSq0KZ2irhYvNYaUZKgE6FfLWkc9VV9K2gIKjsYdUr+0VfTP0qHCEOSjei9gVJNZ3nf5akOBYRlyj76KiYSGU1QySXmG5Qj2D9b3ttNrjTNXNgebWTg8jVWLiKUZliXWOTdZ+3bqNtm7Y4K5m/7bstvKh1SWYXn12KLsHun4CTp3E0gxECXNsJiayIITV6NAmaGU90TKLTcfWBLFgZUw9J2Su5IDiQLPKhh65/KNDnyRbgUMYaRjBCC3XijDUFXEYRkSXf7NDHDziHQzbOmLFgVHVMWEMkNcrM3a6ez2+MTsVK0MCWhuY1254iSfQhL/CgTDtv4uiK64rLynjyFMqugPiHoC1ahtDd0y7TQeukt+cbLyAEI+ww6cqmtfHex4W1UPQ2dcbdvjFNhbVQdDt/rO1WCbS44+GKpaHMzsWh9OJjoeN/8Y3UhlM/RhZGrE72BEteO8Uhn6sDc5zzDhmN+rysMzKAxbcDQ99mdxyjVeKe/SnKRxYVSHeZSbLTgZ/aisl7ODZYmlrd1IGt3p7mkhifqA+uPvsW7DWUPMuQAGS7idyE4B23hzk84tB2LTxy+P7vvkUnNyLvJqmz04DsA6rNk9BXcEq+i96MlZhGFUi3lb/+N//I//gcd/4N7lYxzC/cUAAAAASUVORK5CYII=;" parent="1" vertex="1">
          <mxGeometry x="925" y="540" width="40" height="40" as="geometry" />
        </mxCell>
        <mxCell id="mvL4miRv9UCeCVw3CvBi-47" value="" style="shape=image;verticalLabelPosition=bottom;labelBackgroundColor=default;verticalAlign=top;aspect=fixed;imageAspect=0;image=data:image/png,iVBORw0KGgoAAAANSUhEUgAAAOEAAADhCAMAAAAJbSJIAAAAkFBMVEX///8bHyMAAAAYHCARFhsNExgVGh4AAAr7+/sACRAAAAYLERcGDhQTGB0ABw8PFRrV1db09PSXmJmRkpO2t7hTVVceIiZhY2WvsLGkpabIyMkyNTjb29yVlpd6e33Oz8+/v8BNT1Hk5OSJiot/gII0Nzo7PkG0tbXp6elvcHJISk2foKFmaGoqLjF6fH1iY2Xy0XmBAAANRklEQVR4nO1daXeqPBDWiYpsKrUqLlW0LsVq7///dy+4VSTLJBBCz3mfT/ecK5XHJLPPpNHQjmAxC78/l6fR/nweN5vj8Xm+H53iz+9wtgj0f71WbKKP09wCAKvntVs+ad5AiN9qe730f/r7ePi+MP2iKtiEP/uEQK/daXJBfNd2APbbw8b0K0tgM5244Hg+n1sGHc8B99/0LyxmN/rxwWoTMan8crYt6CyjrmkKPAThCMBTYfdg6QFMDjWVP91wDU6/ALs7+gD/ItNs8ljF4LRKoHdFG+BnYJrSM7rTM7RLo3eFB/OpaV53bLZgCXSCEjoWfH6ZJpdgMAFPA70rbDiZViCrdenbMwsXRiYP5OoI5UkXFvrmOC7WFfC7cvxnwqQL4or4pWjDsnIrYKpRvtDgQbW6Y7CDSvklIHBeVcavuwQd+k+EDsQVbdXItg3wS+HBewX8uico4jwUA4GJdudqZlcrYV7hWTO9BLcGF/AKAp8a+X3tLcP8Ujh7bfZ4VKGO56HvaNqpQ+M79A4CQx0ER5UreQ5gUjq/4GxWhr7Cnpes/QclBmHKQcsq1TeOanMEf0GgRHkzrdMRfIBAWBbBt1oSTFCWRzWsK8GE4lsZBD/rSzChWIIJV2uCCcXCur/GW/QK+ChG8LvuBBOK30UIhvUnmFA8qBOc/QWCCUVl1b/4GwQT1a9owAW9+plqdHRcNTN8Xjdjm43+XIXgpF7uEh+2gr9Ye0WYhbxajP4WwYRiJEfwq4YOIR8E5CJwO76U8SGBY/cr+hlaXloCB/xQZmsvQ3DL/2P+OlqtZuFwYoGlW+B2bID1ZzgbDFahw/2ktcUTFNkyv0bEYroGR6aATQ7EhvnHb457zf858bZNV6Dqiff86SDcF6v0YqIP7jCT3n7n//LExTIUaULvdTsstmCVzrENk9c16Qr2lhfjCAp+Kepu6H67TqkcPWolzURQN4fbp13RqxKL+tzULS9t04aYKvtDwVfg9mksstb6LAvpDcpJDvswYVSXbETby16KCa6ExozFjOEFW3p2ipCW6/UsBx5w0spvn7pZCOzYJQlCkQbi6qKzsAgBODURm3XWGPLdXsLHO4/iz7fwEM1Wg8VgNYuiQ/i2jY9jK7UbsgXFLjcIehLVmPlCLwMRmAGuM/Z+r2PwvbRCPf6OOC0H3a/V+8fpnFa8X2kSmHD/+ndP+HaCKHEgJkgI/0+ktSipIXL8PGBd72D2HY/BcYndivifRMRV+AvQWIqdQqageWDl74craa/76xBDLKq0EIqaRM9whQ0mMuPprBQQQaTzL4vI2zoTRLEoW5RWgabYrmiP2I8PMG6vU1pOSwU7RL0ZR9gLbPfb81F1fPI4IhyZ1pr1tFjZXxhqLkriY4RaBNYiopaQq/D1Y4J5xxbjJKJO4Z9YQ5btJnJN7k9H1XLKAnMOE3FK1dkIZXpB/WVpugw05wRhzlxgFcrXFQXdH8nB+8k/irEWrg9LhLRKB8JuvgLy9t8U66GzBFUlQCf8KJbXHFucTmwDzO4QxpDu6OT8RJy2v0AyfF4qPtEJsZzCiF08w8gEtyv26DYI98WJQsuZplFRgxY06UJkH0Xv7wRkbIae5Gu+9GaMZFqUEfEsTcD4r3dkYxEyq5/7dSrEXqadMxOwEeStXp7UUkaOQkAkGq6c50oinMV+hVd+ETkeWOM5xfM2ldmknbHRsQ4ydWhPlptMWYJq/VFZiPG5kSfFvZRQ96VU5RYBQWfxnhwMF/2QL1UOoAV4+5I0789IVOiZ3qMpTugd9/CD0Y6TIGJeEfBy0bqHI/6h9agg61ERhsIE1A3uPa+PPoa2yZTFL9Buwj1Nhtei9VjCZBGxGuN2ENEmm4ss5tAOfLTmakFjg2y1EKRXxEjJccsE7pFVW52dYV6/wOpE/3j5ODp8ZTRQmgXWsLk4+mh9bzIC9Yot8mRdRA02MtAxb7D9AtsJcjG+saK3JsrwCqxKtFNvXViEc/85jGbVXoHLdTbbpwY+2F0XdX8Fcudd5D/SyDMYQ6QB6bSnxb5Y++Cy3vUB1tRMdh5WWfSMO/dZYBku0HLXKdDlpwNI8ZHIR1HZ7eOjRksw8kAGQK0Dop7xxrA2ZvcVyGRZb4rOyNXJZkuBfG9viHZEKIlxo0AqRHfZOCED+nVj+IY7Xf24McKaNDVj+I2TkP6kscd6Wn+TYefYOOMI1o8hbpeS/Z9liDyHzXNjjGVYM22BdWvPDSRBei2cQWD1+BjPsGY2DTojiN+lNbNLkdWwyRqiJU1kmlMWuFJaGYZm2yzyOCP1+LkxR37SNldjQgXSrSW7xhHJsDZpmSu+sAyPjRFyP99SAHUBsrGg6Y8aMVImMbp/TQEbqU98iyU2xV2veOkH0qRJ/EN01W29FCI2Up/4+FNs2r9e6gKbXutN0bG2XFmxUaDz3NYBP7EsX/1uEOi3hplEQVSdRA2+GmMhUWFUJ8sUa5VelsXG1gvReokMAb0sl0EZyG6w9Jo708QeQNfsX2op8b0k5mr0X4HVhs12ak2jD22NMvlo2XHJCeK7NETzIioD/pUv0lGmfrYmxQr41oJr/AzPsCaZbomWhGvzE1qY1iVoii2Ieji16NrEmsgaie6QW5vdQaIlqA6WG7oI+lFfKjNM12ib8xUyrZL3QL3MxDzzwf0f/KEindszUl19Jju5U8jsuIfsx/dbNE02H16xk5hD+ei3kJpqTSyjwkbqJorfI4Xve2ryhxRph9xiPPqeZHrXmkbb17oyPaTPgl+mRbpp0jxdyy1F9HhQrtG5SUypjFhuuuZz6YFMH3AznfJuxD6VvEwkM4YHHTS9wW8bWEXZ21Iyek1ymyYUncrT+kvZd8za0JLbND2LUbUEJ7IE2/8yzx/kh8xXOnjgay493vZlCWQM9sefGFVm3bzL37xIXmaboMtMn9GuyEYNVC53zfl5EjOGfkFgXYFMDZWuj85XOI2VxnH34UfzVp2dla5poPShMeo1O7YFYNnsZL8HW40cZ0fF66Mp9+rRVSIch2H0Hg4nAEy/zINYk3I8zNnfykdOzqSghdx+L23tvh/Z3+bCMSx9IQfbnvr139SgIMX1ym7m1Y4dlPMtGIUlGquD4bjQhQv0wC5lVtTLBz94h77lwPGtjOzUVxS7gM5qUtGmF3BRFEb/ZV7tyuHuG78HMBrO1NcyGEzjMYBUzIEGVjEsJXXcexmZ9EVExkXLBrCP23C2kSoMDwbX4exWYXZNTkCQVuBg77M6PTgj7CfiX66+YQ4szuE9vU2g1y7rhgx2KpeW//dfwjIB9oS0ZUr9Sr2GkBPTpVepOCTzkyDDXaQjpT8+ZeapCcArSaeP3utkLWxcC65s0h87u0IMbpaTtT7Z6Bpm3Jb0NKLyLlvkx8lYV7BkF34stDWII91iI5Fx4UJwEQsrYEPs51MldrVs+RtepWNFjDcVpTi/GSc+G8sX7lOVTKrEkFjeNwuLRFk7MHsprWCfKpU0YEu3uRDfM8PegZkDLCiHUAvEqTnhL9+MEOEsYdPKaHC+ylBr5cOPQWYCc99To8tyILJuM88KURz5Xfz6YdJD/bSs5Xl5PGK7Uj21eUvFpSn2dJwYu6WXdZxXDkv4qabfsL1MLHhYAddlXfX3ogOCCT3M4Ktm39BFlXQQG338WQciZ4rNzvD6Uh0bdqr3Q+ALQamQ2Tqse0jzinw2AfBatyvF0ovIzkP1wJtUUUgOllRJGuPGalqLXnDYjrzLhXjecXsoFAMvdAmx3F2yrPuAmfciBAmKt7MXURey9wGzfk69WUOl5Mn9zaTlNz2n7GudnVjAMlXJZo6oWhF0DlNS94JV7lZP9C9N2gjdryJQZthS68kKqIpfZ9GXKkPlWjv6F4K+SmhVhuqtLnTpra9EQZFhkSq0KZ2irhYvNYaUZKgE6FfLWkc9VV9K2gIKjsYdUr+0VfTP0qHCEOSjei9gVJNZ3nf5akOBYRlyj76KiYSGU1QySXmG5Qj2D9b3ttNrjTNXNgebWTg8jVWLiKUZliXWOTdZ+3bqNtm7Y4K5m/7bstvKh1SWYXn12KLsHun4CTp3E0gxECXNsJiayIITV6NAmaGU90TKLTcfWBLFgZUw9J2Su5IDiQLPKhh65/KNDnyRbgUMYaRjBCC3XijDUFXEYRkSXf7NDHDziHQzbOmLFgVHVMWEMkNcrM3a6ez2+MTsVK0MCWhuY1254iSfQhL/CgTDtv4uiK64rLynjyFMqugPiHoC1ahtDd0y7TQeukt+cbLyAEI+ww6cqmtfHex4W1UPQ2dcbdvjFNhbVQdDt/rO1WCbS44+GKpaHMzsWh9OJjoeN/8Y3UhlM/RhZGrE72BEteO8Uhn6sDc5zzDhmN+rysMzKAxbcDQ99mdxyjVeKe/SnKRxYVSHeZSbLTgZ/aisl7ODZYmlrd1IGt3p7mkhifqA+uPvsW7DWUPMuQAGS7idyE4B23hzk84tB2LTxy+P7vvkUnNyLvJqmz04DsA6rNk9BXcEq+i96MlZhGFUi3lb/+N//I//gcd/4N7lYxzC/cUAAAAASUVORK5CYII=;" parent="1" vertex="1">
          <mxGeometry x="1320" y="220" width="40" height="40" as="geometry" />
        </mxCell>
        <mxCell id="mvL4miRv9UCeCVw3CvBi-48" value="" style="shape=image;verticalLabelPosition=bottom;labelBackgroundColor=default;verticalAlign=top;aspect=fixed;imageAspect=0;image=data:image/jpeg,/9j/4AAQSkZJRgABAQAAAQABAAD/2wCEAAkGBw8OEBAQERMWEBEQEhgYFxcTFRARExYVFRMXFhkSExcYHyghGBsnHRYVIjEhJikrLjouGR8zODMtQyg5LisBCgoKDg0OGhAQGi0fHR8tLS0tKystKzctLS0rLS0tLS0tLS0tLTMtLTUtLS03NyswKzguOC44LCstNy04Li0yLf/AABEIAKgBKwMBIgACEQEDEQH/xAAcAAEAAgIDAQAAAAAAAAAAAAAABgcDBQIECAH/xABJEAABAwIDBQQECQoCCwAAAAABAAIDBBEFEiEGBxMxQSIyUWEUcXSBMzQ1QmJykbO0I0NSVHN1gpKxspOhFRYXJERjg8PS0/D/xAAXAQEBAQEAAAAAAAAAAAAAAAAAAQID/8QAGxEBAQEAAwEBAAAAAAAAAAAAAAExAhEhYUH/2gAMAwEAAhEDEQA/AK2REXRgREQEREBERAREQEREBERAREQEREBERAREQEREBERAREQEREBERAREQEREBERAREQEREBERAREQEREBERAREQEREBERAREQEREBERAREQEREBERAREQEREBERAREQEREBERAREQEREBEW7wPZioq2GcltNSN71ROckI1t2L6yHybpcWuEGkRSl9VgcHYZSz4hbvTSzyUYd5xxxi4b9axXNuA0WIa4bKYp/1Sqc0OdpyppuT+R7LjfxIQRNFmrKWSCR0UrHRSMPaY8Frh7j08DyKwoCIiAiIgIiICIiAiIgIiICIiAiIgIiICIiAiIgIiICIiAiIgIiIC7uEYTUVsnCp4nTP6htrNB+c9x0aNDqT0WzwLBYDA6urXvjpGPyMbGBxqmUC5iivoABzd015WJDF9qpZozTU7G0VHf4GG4L+XaqJO9K421vYeINrqDumDDcL+Fy4pWD820kUMLuREjuc7hr2eXQgHVaTHMdqq94fUSF+XuNADYoxytGwaN00vztzJWtRUEREEmpNrOLG2nxKL06BujX3DauH9lL84aDsvOvU20Sv2SLo3VOHyen0ze9kbaph8p4ef8AE0a87AaqMrsUFdNTSNmgkdFI3k5hLT6j4jxB0KDrgopjHX0WMOEdW1tFXPNm1UIDYJXnRoq4+hJt2x18BoYtiFFJTSyQStySxOLXDnYjwPUEEEHwIKDroiICIiAiIgIiICIiAiIgIiICIiAiIgIiICIiAiIgIiICIiCVbYDJR4KwaN9CdJYaDNLJmc63iSFFVK9tvi2C/u1n9xUUSAiIgIi7FBQzVMjYYI3Syu5NYLnzJ6AeJNgEHXW/2W2PrMUcOC3JDezppLiIWNiG9ZHc9B4akKwtkd1MceWXECJn9IWH8kP2juch8tG8+8rMjjaxoa0BrWiwDQAAByAA5BZvJZERwLdvhtLHlkibWSOHafO1r/5GG4jHq18SVW++KBseJgNFs1JC48ySQ6WO7idScsbRc+CvhUZvq+VGexxfezpNW41u7PCKeuxBsNQziR8GR2XM9oLm5QLlpB6lW6N3WDn/AIQf4tT/AOarDc18qD2aX+rFLN+z8tJSEmw9K8bfmZEupMbqq3X4Q8aQPiPiyaouPc9zm/5Krtu9h5cKc17XcamkNmvtZzHcxHKBpcgaOGhsdB1xbtpq019OKRzy3iN4wBeYuDftmW2ndva/W1lbe9Qs/wBE1Wfrw8v1+Mwtt/8Acrp7KPPin+6fZODEHVM1SziQxZWNbmewGR3aJOQg9luXr8/yUAXond1hXoWGU7Xdl8jTNJfTWTtAH1NyN/hVpFb72NkoMPNNNSs4cMuZj25pHgSDtNILyTq3Npf5nmq+XoreDhYrsMqGM7TmsEsZFjd0fbAafpNzN/iXnUJKVMtgNhX4qTLI4w0sbspc0duRwFyyO+gAuLusfC172tWn2DwaBoaaWJwJ5zF0pJ9chP2Bct2hjOFUWS1gxwNv0xI/PfzzXVO7y6KrbX1D6tri18juC9wJiMRPYZG46CzbAtGt7kjW5mqs7H91uH1DXGnBo5baFhe6LyDoybAfVy+9VDFgkkWIwUNUzK41cEUgBNiySZjSWOFtC11wRY69Cpjus22iomS01ZKWQjK6EkSPDDqHxjKDlb3SBa2jvFfdr8Zoq7GMIlpX8QtqadkjskjBpWRuYO0BfvSfaE9RuN42xmG0eGVFRTwCKWN0OVwfO62eoijcLOcQey9yp5X/AL3DbBqv61P+MhXn3it/SH2hXiVc273YrDarDaeeeDiyy8TM4yTN7sz2AANcANGhVRjVO2Gqq4mCzIqmaNgJJIZHM9jQSdToBqVe+6lwOD0ZGvwv4mVUbtL8fr/ban8TIkK1yIiqCIiAiIgIiICIiAiIgle23xbBf3bH/cVFFK9tvi2C/u1n9xUUUgIiKjb7KYE/EquKmacgddz3WvkjaLucB1PIDzIXoTZ/Z+lw6LhU0YYDbM49qR5HzpHHV3q5DoAqe3L/ACqfY5fvYFam3eLmkopAzN6RUgwU7Y/hDPK0taW/V71/LzWa1EhRRrYKDEoqbh14YDGGMiDTnfkawAulcHEOeT59D4qSrKiozfV8qM9ji+9nV5qjN9Xyoz2OL76da4pWPc18qD2aX+rFc+NYvSUbGuqpGRMe7K0vBILrE2FgdbAqmNzXyoPZpf6sUt36D/dKT2r/ALMiXUmJlhe0+HVLxFT1MT3nUMa4Ncbc7NNifcodvowipmp46hj80FNrJFa1i45fSARzsHWIPIEkdVVWBYXVVc8TKVjnS52kOaDljINxK93Joba9z4aar0RtjIxuH17n9z0Wa/neNwDfWbge9MXXnvZbCfTq2mpiLtlkGfn8G275OXLsNcL+JCvjeFUTR4bUiBkkksrOE0Qte94EpyucA0XFmlxv5BQLcdhWaWprDyjaIWfWfZ7/AHgCP+cqd7QbcYfh03Ane8SZA6zI3vADibXI5HTl6vFLpDdzPM7DaVs0b4pIW8Itla9jiIjlY6zgDqzJr61RW1mFeg11TTAWbHIcnQcN4D4wPU1zR7ir12f25w/EZuBA95kyF1nxvYCGkXsT115etQTfnheWSmrGj4RphcfpNu+P7QZP5UmlRrYXbebCXOYWmamkN3R3Ac12gMkRPI2AuDobDlzVxYNthhmIjIyZhc8WMMwEbz9HI/R/8NwtPhGwODVNJDIyE/l4GuD+LPmBewHN3rXBPK1ri1uipPF8Nlo5X09S3JIwkEEWa4D57L95h5gpqYu/aPdhh9UHOgb6HN0MQ/JE/Si5W+rlKqahwqaixajp525ZI6+lvbVpBqYyHsPVpHI/0IsrE3J1lZLDUCUvfSsycFzy4jN2s7I3Hm0DJoNB08Fi3ntYMYwJwtnNREHeOVtZDkv73S/5p8VZOIVkNPE6Wd7Y4m2zOkIawXcGi5OnMge9aL/W3BP1qk/nhXV3t/I1X9an/GQLz+pJ2WvU+H1cM8TZYHtkidfK6MgsNnFpsR5gj3LzTtL8fr/ban8TIrz3V/JFH/1fxMqozaX49X+21P4mRWJWuREWkEREBERAREQEREBERBKtsDmo8FeNW+hOZfpmilyub6xcKKqQYHjUAgfQ1rHyUj352PjI41NKRlMsQOjmkc2+vQ3sfmMbKywRmpge2to9fy8Fzlt0nj70Th1vp4kclBoERFROty3yq72OX72BWFvE2drqx1FPQyNjmo3yEBxDdZOHZ7SQWkt4fIixDj6jXu5f5VPscv3sCs7bqvxOnia+gjjeGtkfM+WxyNY1pGRpc3MT2/Hu8tVm61Ma/d9j2ITz11HXhpmo+H2mhg+EDjZ2Tsm4DXAjxKmz3hupIAJA1IGpNgPXdRnd9hRhpRUSlz6qvyzzukFn5ntBEdvmhoNraa30HIbGkwcl7Zql/HmabtHKKM/8tnj9I68lz5W9+RLb+NsqJ3zSB2K6G+SliafJ2eV9j/C9p96sbbDeDSYdmiYRUVQuOGwjKw2/PPHc6dnV3l1VEYjXS1M0k8zs8srszja1z5DoAAAB4ABdOK2pFu0xinoa8TVD+HHwZG5sr32c7La4YCeh6K2/9o+DfrQ/war/ANaojA6WOepggkLg2eVkd2ZbtMj2sDtRYgZr2XYo8KZNSy1TZMgYyd7Y3m8jhDHC8WsLH4U5jpawtdWxJV1TbzsGaNKhzz4Ngqrn3uYB9pVZ7ebfyYoOBGww0ocDZxBklLTcOkto0A6hoJ1ANzpbR7UYTHRTcFjzJYdok3100tlFvVd3rWWkwJklBNWF5D4+MQwWsRA2Fx6deKdbi1hobqSHaxtgNrcIoMPghfUZJe06QGKoJzvcSRdrCDYWFx0AVX7TYp6bWVNT0mkJbe9wxoDGA+ByNau7XbOtjMoa6QujbVWDmBvFfRiJxfFbnE8SktPPsHn051mzkcUFbLxCXUkszAOxdwhdA25Z3tTMAXDRthfmqNfszihoqymqekUoLrX+Dddkgt1ORzlZ+8Ha3CK/D5oWVGeUZXxARVAOdrhpdzABcZm3J6qFVOyMUc7I+Pnje2qOcWbb0QAOa7Q5TnztOh7txzUalpwOK4OaGRuIs6SMPIvzDTYv05kD7E1Ev2B3gPwwejzNM1KXEjKRxIi7Ull9HNJ1LSRqSQehtCHbvBqhgcamID9GYOjcD9WQD7Roqdq9lTA+JsrnEOpHTPDQ0PEkYHEp2k3ALc7CXHkLm2iwSbMyCCtnOZvokxYGODMxDHNbJmyuIBbxIj2S4aP10TqL6tzGt5uGUzSInmqkA7LIQ4N8ryEZQPVc+SqOo2jkq8Tp66pNgypgcQ0OIjhina/IwcyAA4+JJJ6rJDs4yWVkTXujL6AVAMtg3iOaC2MkcmXcAXdOa02LUvo89RCDm4E0sdzpfhyOZc+F8qSQ7WvvG20w2sw2op4J+LLI6HK0RztvkqIpHElzAB2Wu5lU+pJU7NsDrNkLG+jyycSdvDZmhdGHNe22eO3EF2ubcaWLwbjr4vgsdNBUy5y58NbUQNaSG5m07425yMpuTnue0LWHNIVYu7rbXDqTDoKeon4UsbpLtMc7tHTPe03a0g6OHVVXjdQ2Wqq5WG7JaqZ7TYi7HzPe02Oo0I0K7lRgeSprILuPozJnNOXV/B5aefktMQiCIioIiICIiAiIgIiICIiAu9g+L1NFJxaeR0T+trFrgPmvadHDnoQuiiCWmbDcU+Ey4XWuPfaCaGZx55284HHXXu9Tcmy0eOYHVUDwyojMebuOuHRyD9KN40cLa2525gLXLeYJtPUUjDA4NqqR3ep5xniPnH1jdfW40vc2KDe7l/lU+yS/eQq9lSOy2J4NSVbK2Golo+y5slPPBJU9h1rtjmj5C7WkF1zpqOi221G9u4MeHsP7aZtvDWKM+/V9uXdKzZ21FibQbQ0mHR8SpkDL91ou6R58GMGp9fIdSFTu1m8yrrbx096SA6dk/l3j6bx3PU37SoZW1cs8jpZnulkf3nPJc4+Vz08ByCwqyJ2IiKo+tJBuNCORGhBHUIHEaA2Hh0156e4fYviIMks732zvc/KLDM5zrDwF+XIL4JXBpYHENJuW3OUnxI5E6BcEQZGzvBa4OcCwANOZ12gcg0/NAudAuOc+J69T87Q/b1XFEGRk72nMHODgSbhzg655m41ueq4PcXEkm5JuSdSSeZPiviIObJntdma5zXBxcCHODg53NwI1BNhc89F8L3c7nr1Pzu99vVcUQZJJ3u7znO0t2nOd2f0denkuDiSSSbk6knUknqSviIOb5XOtmcXWblFyTZo5NF+Q8uS5CokyubndlebuGZ1nHxcL6n1rEiDOaya7XcR+Zos0533aPBpvoPUsLnEkkm5JuSdSSepXxEBERAREQEREBERAREQEREBERAREQEREBERAREQEREBERAREQEREBERAREQEREBERAREQEREBERAREQEREBERAREQEREBERAREQEREBERAREQEREBERAREQEREBERAREQEREBERAREQEREBERAREQEREBERAREQEREBERAREQEREBERAREQEREBERAREQEREBERAREQEREH/2Q==;" parent="1" vertex="1">
          <mxGeometry x="1130" y="225" width="71.19" height="40" as="geometry" />
        </mxCell>
        <mxCell id="mvL4miRv9UCeCVw3CvBi-49" value="" style="shape=image;verticalLabelPosition=bottom;labelBackgroundColor=default;verticalAlign=top;aspect=fixed;imageAspect=0;image=data:image/png,iVBORw0KGgoAAAANSUhEUgAAARQAAAC3CAMAAADkUVG/AAABTVBMVEX///8AAAD/cj7O7vji9v3/ajy00vT/bz3/X0Gvz/Pj9v7/cTz/bj0GBgauzvPm+f7p8vzX19f/bDL39/fL8///bTQxMTH/o3b/WTf/VTH/XDy31PTS8Pn/aSz/bTP/8e7+r5ju7u66urp1dXXA3Pbi4uKYmJhRUVHQ6fny+/7/ZkD/0sXIyMi/2vX/eEX50snT4/f/ZiT/fk7/lHD/4Nenp6c4NzeBgYFpaWleXl4fHx+ZmZnd6vrW3+P7hmH/ZTT5j3r6xbj6k3P/hFj/wK3+pYv/t6H/n4Dt7e0bGxuysbHmvbffxcT4imvvrp7ot6z+il3/qHvwnovqv7P9dlv/bk3rq6Ohk49WSkcXAADNwL37jHY+HxD9c1ckFA1yXlnuoZGph36wdmaLLwy9VDHVWTFNQ0FqMSVgNSklCABYMyfbakGARTSMRDD/Xw7BmiC5AAAQ/UlEQVR4nO2c+3faOBbHDQkOxoSHDSkYjEl4BBKeCXk2NKEh7/Qx2aSdTrez2Z1td2Znd///H1eSLVnyg3TmJIBNvjOnBUvusT7ce3V1LZvjnvWsZ3lY9cRBp9PMATXLnYNEfdLXM2nJiU6T5wUhJvA58B8PPsSEXK6TkCd9ZZNS/aDMAxrNWi0ficwjRSK1WjkHKAnlg1m0mERTiPHlWiQOpAPRucCv+RpoFJqJSV/jmHXAC4DIfJywYBSfj0cgF/5g0tc5RgEkOURklOIR4F0zgyWRi+VqcRqJk7Ugg6kBLLPgRPVmjK89YCQ0FiHW9P1UdAAmlocch7aheKTpex8qx3J5RyQRVy+K13i+POnrfkLJOWAmRHWu7ugxFBuUv8Tnm0LOt1lLQhCoaBIBR+pw1Pn8HKV83m4z8bKQ82m8TQh8hHId+NvXGR4sGNaFBMGXVA5iOdYAwDFnJogLG28gFR+G20Qsx1jJfH4u784EYWEY5oWY72wlIRAmERhNRhiJM5Z43nceJAu8OTx4oP4wE4sTQSr+SuNyZoxFk+v8dzEBoowlXovxkx7HY6os1KjwajOTVCo1l+/3+3n4wd1YQLRtTnokj6dOjOQn8Ou8hUj/6uRYTEvqYWjj5Kpv5UJTaQqdSY/lsVSPNWkmTIhNzV29kqS0GAwGxWgodHh4+OZ6LuVGZZ4X/JLa5kiQhd9YJlctFQLRBagALurGtY0KLsvVhNykR/M4OiDOA39lmkmq/4pCgqmEQt03fQZLnkRbkPD7I4cTmm5MriQGCaQCsERD0cND1lgoDxJ8MQN1Ytj2OTbGpt6qQZtChrrvGCr0DOSDOoIslI1qPefERASioSxAIlE7FdOBcjHvp3CdmJm00flJ6h1isrH54r2jqYS6V862UvP+tEwMBToPzSSJfGfjhxcvftikbSWqWwr4v9t3DCtx3vPZ/kEsT2ZjJmlrodRk8wVUyz4Bwbm55ehAce+bCp+Lk5mHNpT7QtAZiuk/oUMmrJgzkNdzlQTOUTh2Nu5LCID4/gcIxTGoQAdiEj09XKNcxds1hI7gHGVv0kGDitVQKP8JHb51NBWvz8q5JvEeJqJIGIHYalkSOApKKEqfY05AvKcTOOA9JEehDeXKIW1jMhU8LV87TUAe9x/Ke+I0lNfW9N4FyuENm6tE/JCqNHOOYTaVdmdCQ4mGjh39J+LZYlO9U07k9MwtYim29bvfBwX4T83Rf3J8x5tbenICL6AqZCRi8Z655IiQElygIm20m2RMBS8tyzzPx7xYbhLAhQt5HFIY7/mLNAoKbSnqtdMCCN5z5z0ZbHmoCA4p9NBS7wpG5WTBHcraGrQU1bmuUhO8DCXuDOVwLWxozcZlIbpmtroUm/JehqKnbnFLOpu8VcJKJgukwIFboUAasDkDWpWjPJPU4q2lXnYfJyipq6yiZG/vB+324GgtCwgwxhIFB7Jrn++Hw5vbbCacuUvSVMyc1rtQyhiKOfmkPmTD2Tc9o5M8CAN7iDJMMncDo2CiFTOKotBUMJSc56HQC5/UNWAyoLrJbzLhMM0ke0S1ancAS98GJe4vKH0lnG2zHQEVElcAk3umUb5VlFufQ0kdZbJDa887JRzSmYTCmSNLo7wWzprVWl9C6WeVW6O9stIwPvWy2IHAdIPrrz+taPqHdla58zWU1IcMdp6PgUDgR6PrG0WfgYChvNWPnH8CzT/pn2+VbNICxdOBtmmZfVK3yp3emgwEFhcDH/Uvg6zuP2vhjGEeP8LWgGy0Zj6kGCgRT0PJWaDkw8pnvfUjGPVi4K/6Fy2rh9qw8sU48Ak1N4xW5Q2G4ofkjZRTjOStn8H+cYlGvWr0XcNQjowDP6PmpP4lbAYVUlDxMBRjDwaH1z59MvfIMGjgqMHd6ZE2nLkxDsCIQ0LOnXKYYtN8T699BLJKzlsshav87edvK7ivzVK4j0v7JTwRrRFLyfuhdGBsOyf1lLw9D4EyY8qtY6tym8LeEyFFJk9CEZg5WY+0qVd49mG0TmafsMNt4nY2c4+hREia4k0oTUHgjds+pEYL85SevetnkqcwyyJDR0r2mlgKnnwEwZs7MjqdOr7FwZGgksVzMiUqo8VzMiXgPWtzTEiBtzgOOl40FKSEsX+W5LRw7WMzhlsFFw/AOuetvTX7gTWUeNnb2/R5co+DTMpKxuJAN+wq2bKGvgFLH5zk42J+jvek62BRtwgNU7nOKhlm3EdZSz2FsaSbbDibtGQpXt94jW8mmxXJ1Luskj3RcIf2XYapvIVglcls/ZKhCgd47inHPL5tVCDzD1kpXwFbyXwe9rReu/gF1q6ZGi2gordq7VPQqiiknk+2YvAe37Rj7AOM0FveUn0wBSuwmI8K9tZqfhRkK6RV+dy31VK8fXsdSo6VbTtUUknVvLMTtCtktkbNonWehFnPbwTkykaopXdHwhvsrncIdXNBd5KD4jFhQhmKt8MsVIIylToF5bskviKWYu448HaSoqtsLJWpTaP5UbsOGCivbVHWD4YCn/YxtxfjaXnUrgNa6RNLdQneG/R8RIHqGLnKfBw/m52ybv5zhXLDJvjz8Y7npx5DPH76NjKvU0lt0FBGAEobNQPiPBF/PNnCUbEWU0m9okG8YnbAMQ91FPSNtOZma19EWV3Ug5Uo1DK7I1XtNRV3peN1KuBIaCO6+axC2ePbihnlePy4QQRSSZ1QxpG+5k71JyuDYlo94a4KFBS47jGZ+OYJQqS6QL3oID+Xuqeh/J3jtLO0KkmqeNbjuH/QVgQWPqbv5AXfPGuKlDCfwp2P5FNvKWsI/lIBHbT2cNiGk23lF6pJTaYIknjEm2XZETogwRa60Dsayj+36Y7bXxkopoHN5/wyG5vqAFshzzGxe0YDP5ICivYtQD/ToZ5TTGK+YwKplOcdobT+FQh8RFi0j58Cv9K4uhhK3J9MkK3gIV4zi5+v8B7pb7/++zf49+90i5SI4HjiTyYwrvDG+8wqDBRgKnDjBdqc8SvzRFQhjudi3qdM4Bxk3EetWJbJF3CTAdxnsBilD4st+IKz+HzZdy/ZoZVoxtD7AM8tUH6/QGYS+MQ4T1A8BrE5nvfza96QOujNkXFbQeU/AMnP/2WfJgyKb+Lw7ZF+yu2dlciBeBsvWKEEW1+/2o6Jr+O1nDAT7xntgJ/+++op6RsQTXwbYVnVy7GWa8magXIfa/o7mtCqbyw8TGVhIX0/O0hA6noYXVh4gAtoj0YnfaHjVPEQDnkUFchsQXTaw+NXadmQPmoXLnobyOPWnDaD+VS3CtziBpAgJ1pwIAKYwM9rmbNJX+t41Bt8yRhPbRhQ0F+ExkIwCmmhDmvhzO1Ae/jf9LK03unRHXpy0Liv3sJYiNXAv6ILopHaKmgDwt3R6brmi1tgDtKGp0e3d2G4yUIv57fQrQ4YPnQkBhd4Dxm1p4/0py9vP98P/W0vmtZbl9to8dMitzqQ+wRJdBH11zR1Oa3d0/yNg1IPvbqrdebyJggR3QMRpUlf5nilQ9koorHboaRPUUNr0pc5XmmwSCu+h1DEDfp2u3gMvxQGOq1JX+Z4pcFbguIraBDie/p2ux5NpIH+edKXOV4hKOkzBGXzmIaCwozUbiFok77MMQtuLkifDAsQDb0HIV2Ef6q9DdQ+6ascs2B4TZ8OJTh0BsopxKFqx7MIBQ5aGiIoRfrdkYWhDgUeSxcnfZVjFoIygFAKpyyUTQTldRq2TPoqxywYT9U2hCINaCiSAQVO1tIMVVOQEJTeAEJpM1AGMJnVoaizBgUNWoNQ1B7jPgO9BdqQuj7pqxyzTqWgWNChaKylwNylK+u4Jn2VYxawBDEor6sQCr0slNahjXT1llmDMoBQOLgTssvBmQYkJWgJJK3DY6rcQ7gmfZVjFrAEsAiGfxY4PbNH0w6IIxCHNLtQ3qM/RR2K2kPlAgRFLMhwGa1O+iLHLLi2SZ9xbQBgg0MVJT2MACiaCqMNB5wp/XqGTEUbHqtiUOz2YK0J2AuEAnwJ1VgIlCJAlJY2/V7LR9LWT1rdrpSWpO6Qg5aS3kRQgNmglbPalrvQfTjuNeyldrvHpz6fhHrDk7OTItQpKs+DeQfQgFAkgAiulsE0nBb1BL93inoWT06KM2EvunqbcEZe17PbNofggL9PYIwt+tw8nKStF99LalpMd4s45edQ1gITtmPQUOiKm6ftGTKQ4VlaLQDHSYsb8AkFDsxEqEbdk4zC0mCzBXiJaam7cTJDnkNJ24QhpQg/wpxW/zTb6p1IcEIWkT20u4BKQfT5LdLR0tbPWiB8iGl1w8AwUCVRFKXCcXF9FsH0hpvB//2v2+2qUmvTLCZpxWNRAkdBU+ts5sKJZsq9ZdagPOtZz3rWs571JJIbW9WdUnUr6dqjclkt7e1UqCPJrZ291b3Sy6TrZkjYY3u19LLh1mGa1dgLYC2WKg4d5K0lox1TW67uk3MCJSeWy9ULs8fO+RNe/lMouR1gtGsbwJbZaDysXWVPCZRs1vJwj2nWTsCmFaaDvEq3LYMjy9v2c1gXqdh77Lu75tRpzz6+QGCL6nB+QbdcgB+84nQKQzL5YI+pliOTQOCSdFhmG6qAkvMp1JidqVmtaWrl4Du6SLhdYg4DJty+yynmOa49licyyD+oBrnc7a3keSVZXcTf940eZrzcXamcw2Bpciw1KsvnSbMHfmNGiRzZaZwvnzfMM75NaJx/SCRcEMN+iY/oYYW4yiqekohr7JGfnQxadzoSUHZlWw8PhJVL41KXqOkSG88F+oZ/9B3Sjo9UqX9nhTEvHKZeOvRYesLRPJLwvMmkEPj6ofHI2FFI67LtCNQldQ7uscP0wKnO1M/LFWoolHbNQWFAJjX7EaQ9E9UWbTWmvjmhmkIZv++q5bARE2DYLNlcZcfuGtQ50DsMppeWHg2P+I8xQFvwWyLGYPy81HJo23ZElxGyl8nZ1tlXNia2Rx/FI8uwedtSZ5cMfN82EPsR6zluFrHqDGvatOQywCqOibJtgPKFY8AgjpbEUKw+SWObarn96iOgGOcs2s7ZsUDZtvXY8wYUt8vcHQHFzbpWLVAubJUCM1JNtR4ItI5QDJDWpR1OaJIkFFsTEpwbP/ooHlmjp2RnKMYyYM9yDpWbGahLlh5V5xOnTi7J2+ooKEnHc7ChQCgN8yMlbCjW9GX6hNN8JqpUzQE6QMHnXDAT+WqAImF83JcdTpv6kGLm7PSvSpbJLlCwo+ybJKl6ZZL6F5aoHpiJ1ammUaSSimv4Saoe6wzFrDpV9TxMvlykz+GIqZg9zML3tKduUFQtdbv0slpiymwuUMzCVGB152V1b5E9h6MMEPSogh7m1y3Hq5g2vQy4ywWK7eaFDYprkXN3AiP8M3It0rpDocqNLlBw+meRPfWfVrlTcYUy8hxdTtxWp3/mIWrYrt5YE1VwQcD+C6/YziFZsKFLW4+q7V+ZarFBYr+hGwhc0ukm4RAeZdZYdpfNBaFLj2lfCNq1UjKsY6kEU9Uk+LaNZk84czjnFvIWnr1XX57TpQOiZbNH1XtIkORKMlkhXp/Eo0iujBhPpdFoGM0OUEgPD8WSPy254rCvwiPVkqcSTE/tCYfOZHEWjMJB+mRljTPGZOOJ26JPIEc/kfc9Oe0+mowZhS1d4wx2VkMKTmq2qfCB81fv5PGPLJmsinFO1yBr66m/UfxkolL80tbl1o65+2vq7xM/odwWyfZbPbOkVUcm+zOao2A5lUv2vVBpfFLZi29eqEg/tSrsVtPt2Z13GCV38Ex8UfLI/tix6LyxsnXZmNUs9lne0v8BCq3uDcBZdOAAAAAASUVORK5CYII=;" parent="1" vertex="1">
          <mxGeometry x="1500" y="220" width="60.33" height="40" as="geometry" />
        </mxCell>
        <mxCell id="mvL4miRv9UCeCVw3CvBi-51" value="" style="shape=image;verticalLabelPosition=bottom;labelBackgroundColor=default;verticalAlign=top;aspect=fixed;imageAspect=0;image=data:image/png,iVBORw0KGgoAAAANSUhEUgAAARMAAAC3CAMAAAAGjUrGAAAAjVBMVEX///8ybOUiZOQuauUmZuQqaOSsvvIsaeUaYeQVYOMNXePf5voIXOO/zfWpvPLU3fiit/H6+/719/05cObo7fu5yPSRqu9Le+eKpe5ylOtskOrP2ffu8vzF0fZPfeexwvOAnu3d5PpAdOZ8m+xhiOkATuGZsPBYguiXrvBchelmjOqNp+52l+yetPEAV+IhD3MNAAALBklEQVR4nO2deX+iPBDHSw4hES/UetXbVquP+/5f3iOQhHCEQLcrwU++/y0CS4ZkMr/JhL69WSwWi8VisVgsFovFYrFYLBaLxWKxWCwWi8VisZjNftqZ7pt+CKPoQwIAIE6n6QcxhdEdACcGgPuo6ccxgOBCEHQ4EJFL0PQjNczHnCInDaLzj6Yfq0EmRx87ebB/nDT9aA2xX/rZPpJYZdlt+vEaYHCiRX1EWIWeBk0/4pNZbYhbYpEQl5xXTT/mE1kftBaJrXJYN/2oT2I69qDeIBHQG0+bftwn0IGVLRJbBb54cDsaipC1OgAMXze4Db7kkLVGX3nZ4PbjlgtZq/OSwe1kpwzQWKuB5nd/91rBbXdRGMRLkN10R8pPwf7idYLbwbU0ZA0B/cd5fZ3/xfT6GsHt6ky1jhXi6FS9B3bpCwS361mVkBVuopM3FWYll8zaHdxOD9UCNDiLTj9UO9k7tDe43TqVQ1YSXaBxspJVWpq57aAaISsJ59lJVZs8AKiFVvn2qjfQcbzQc67qXfLddBPrcq4Xs4LQQ0zraSF0brqR9RjWeuU8PqkZ+3v9pptZi1r5gAdo+LhoWNMm0Gu6mXVY1+wmjrd9XLWtfVWbIpX3mm8cx67hrJMAGdB7w+2sQ5WAlAERINQZRpcNMSWghl1Y+NsKRrRqowCdva/lHEB3unNI5V5GG2tibSoGGphutkWZou59TKr1Fq89Mjk7gUDk5UMPROfqJNFgWZBeALm7oOETW/V3XNNSGKLOoIPTxzC9ladYJ8tMigGPp91pxlB4+aQW/T2ZoRP18GAmtQeSqz69OjjI3SKemgbpW0Pwr5vyW3TTWg6i+PBY9BTX61W60d0XXQXH2YS3zOghbclGbrMPHh8OHGYUtMkOmyBewBllj3cd1rnwgS3xZGY0sP2nLfk9jhkXi+7x8SBuITmmzp50Fu5nPJI+Pp1FJ+14TyBlkmwwiHf/ujG/hJOFfMU/BAeAIf2STg36B/qI0ijrJ9TBj4ilIy/7HT0HeVwBz3OT/PgZDfp7PvIRGziwzPLXjkpiNpjTOC3NY6/oSgjIRbLKHLyzS3pOPpij7VgKWxekQSC9Ml8huYy7WBjk0we/EnlSFo1dMTkXpeFaIgOLBSAmmcRydyzZjh1LbOjNMh2g7xfm/9HlKW36W1QCkM7lszq+VAHKJtq3WXLMpan5+j9FrrYdMlAtAP9Irz61EOry1Oq33Bf8e3L6xFfdtBUycKAUgHghTtqnagxEiL6UY3fkJdPyVakJWyED1RlEySZvo6vUURCPWHbJtZD8J930pLRJK2TgUpVPgl6q3GhLxUDB3NPMRdMhSbmTgvmdX9sGGagcOiDzRiczMfXyMO6L9xPvnAnzL6re1wYZ2FUu5uHcue/McyIex7HVDOjnBsRIuRLQAhmYFYD5biJtXRrAaLAIJRdfjMZSM/nZX6qO0gIZuFN5Q8K8SfdTbsQi7FYiGO2FA4/upN+HTB6+BSqP0gIZONY9+smlcuw5JQhR7nwDigCQo/U5QXz6WaiMbbwMVE4QHlOB+8cJnpwt+JhLxXuT25fsXJePfuOzX5XraMbLwCIBGMKTbW/H8HWDa6WbRQvx6Mb+pbKJ8TJQtQKIdvHvLPJHM31pdHCIRouYbFWDx3gZqBKAgKniHutHeKzr8ROe6eejTlWKAU2vuVC5E8K8gshLQlAeVwwIty6PcpWRj+EyUCkA+QCQ+j8tq+pcS0KYTywqmxguA1UC0GX9W56WoK9e0djKuQHKpiLVuDRcBi4VfpBHJ+mVZCmhcr/dbkm+pPunqB8cVTc3Wwaqhg5XeenIP5lF+xQ9QjeRhO2l7sP9syq8N1sGKt0gYM29p1JJPo/PBvFQ8bljCKhcZs7HhrLezWgZqKxc5K9ahC8QeZ7YZhFwU4oMy2SHkv1PvBxJe3cjUQpA/tRx0ggDerjIs46wiXRsP9xQENmFT8ZKmxgtA1UCUNjkhhzkkWW2FIcVZ8CMswx6x7C7aG1isgxUZwi5P/n6M34vCEuYm8lm4kL2980fNnaUqRmTZaC6BJQvo++LS5P2fthc4Bd/KeeD+R119ttgGahMmgoJqGSIPG3otVP2E4Nl4FmVM8UVdtzoy3TWM5ULN1gG5t2JizECnn/4ne3Bwdn3AEIY52xvrAzMCUBEvo+7+3alsshkXaze1r29Ir0y2vf6l/kytzXIWBmYjTOJ2kFM1v3djBLPXxT8eCKA0PHiq6cOT7eZgNlYGZgRgPhWdNJk1dltCPFQHKb6+YmoGwf6OCw6Pyzu60LLZNy5sTIQpIe51J9HySR7pkB2B34+sviQ8wQYkYO4izQIW1IUmt3Ox2PXYHuiZLxhr3udOsstmjBSFReOx24zGTuEzoasX+VqK82Ugb2s43PD51wtfRC2EfAQIrVhtrBQNh36uezoMLw9RPQcxmeD7PZsUK3i9tnkQ29yPnkedzJ8uTjVUZC4+rJJ4i65n3h81ZBrKRfQ2YFkZ2NDV0gLJBqUWie6xDk5KAoK3i7EJcInS1kWyL2JnKErCA0NTRfsy7cHi6I1qQ5LaLdIPYo5SFobFhLoXL7Fnxj6UVHN5i7ChVqfGy+ZQaP1rMw/o9fPd7etdPuxn9nQGnTKtzJBkeVYsrFBeNpgH3cMymfvAbMAFtPSrNzgnpnu5MGmfHdWkh6JxVxiJDYwxPBik5Pr8BB/Wm5ubK4GDDQb+YT7GEVLwYCXJ4mpSPjhaA5zMT8/0OxXxgZ/mKurLGONcEU/GM0e5hNlJ+OkxfyEh5WwI2JcddljhG9mwMaYlu8YBUkp9dUTmeVOMomLrjPHYCNevmanPzVzHhbMy7/DID3+8JNPn5JOEvWi3c/EfKvy3gdSNesmotlL7icZat7hUxIX8QYmAnKSC1pTGOxfOSO3tAWQZrM/mWR/Tih/lDtuCA32r5xuuUuB2RKLRbrNKFPWNdF8jIsa7V85PY1R/LRLvMyoBxCGLgxTt/RwS733gWYWpmbq4Rw3zfduaCYBN1p13o/L0/L43smmbjvl7jWJ/Y3nW/O1AbCptm43Wuo+d3j6xy35PUZFal7GpVVyyj2ssS00VfkVMdF97AO6+pu8lc9gD2irvhS61viBRO2VoPuyjG/uKnEhF80nUOJM5Lr4RQfxdD3W5AfMXSRWoN7BFxLrmjWls3s2hut2rn5cEdkpnb9wtfp0oyh9yzA84+JHNVx0drxv16vBaj0d7s6EhGl+Gs2xZSaBBtfhKCmTKVEaMuA+B6JHsBbyCN141jWqiV2pXTUkrfKvHLWfjeP30qERb4dT7tmRtWSruCurZaPwvXRaidcwRqpkvXcv/6/NZVksaeNKK00ME2s7RboembpkXoFD0XtmsYnmi5eseqKwM7mHsv/UcD6KVC2r9/suX8RiH2coquuDnrlljhUoShvGBXna8D8ePEVlg231r5xhgUNwQxerWetkHWVUMPGUlD+1hEX+RcNxv3PQf7wQj4f3AoGNisq9WkaRn0XV/r4KKhg4rfavnKDul3LL8V7ir84MNHmDWvimFn3WpF/ju/UaSLs+y11C9sN+PwYd9f9ZW5hV+dN3etwq2bm2oCvCqAh6Cf/K2f+Gn1Vs72kt2QL5H0CMrc/6KeoNSRUBu6ab8Ptoit104FZ8xLAmRXKujk1eyr9yNMVu5ZhdsvZz9po/i6gGgRebchJGc+qB+nh03oJapJ+z2vY7Ndm2PK1msVgsFovFYrFYLBaLxWKxWCwWi8VisVgsFovlhfgf+RiNYcktL90AAAAASUVORK5CYII=;" parent="1" vertex="1">
          <mxGeometry x="1505.16" y="340" width="50" height="33.27" as="geometry" />
        </mxCell>
        <mxCell id="nNiH5lSY_lWaH5biGTzU-1" value="" style="endArrow=none;dashed=1;html=1;dashPattern=1 3;strokeWidth=2;rounded=0;strokeColor=#FF0000;" edge="1" parent="1">
          <mxGeometry width="50" height="50" relative="1" as="geometry">
            <mxPoint x="1010" y="750" as="sourcePoint" />
            <mxPoint x="1010" y="200" as="targetPoint" />
          </mxGeometry>
        </mxCell>
        <mxCell id="nNiH5lSY_lWaH5biGTzU-2" value="&lt;font style=&quot;color: rgb(255, 18, 4); font-size: 17px;&quot;&gt;AFTER CONCLUSION&lt;/font&gt;" style="edgeLabel;html=1;align=center;verticalAlign=middle;resizable=0;points=[];rotation=90;" vertex="1" connectable="0" parent="nNiH5lSY_lWaH5biGTzU-1">
          <mxGeometry x="0.1402" relative="1" as="geometry">
            <mxPoint y="1" as="offset" />
          </mxGeometry>
        </mxCell>
        <mxCell id="nNiH5lSY_lWaH5biGTzU-3" value="" style="shape=image;verticalLabelPosition=bottom;labelBackgroundColor=default;verticalAlign=top;aspect=fixed;imageAspect=0;image=data:image/png,iVBORw0KGgoAAAANSUhEUgAAAOEAAADhCAMAAAAJbSJIAAAAYFBMVEUAq/P///8AqfMAp/O22/nx+f5mwvYKrPOw3fq92/mOyPZdv/bR6vz3+//B4/sssfSCyPeq2frn9P1Su/VItPS43/rd7/2W0vh2xveKzfiNzvjm9P6d0/mByvfL5/xJuPWHyhlyAAAEOklEQVR4nO3dbXeaQBCGYToISwuIKyr4/v//ZQ16Tk6TWZPizgya5/5qq1wBeVllTRKEEEIIIYQQQgghhBBCCCGEEEIIIYQQQj87IkpFI0tcmiartt/6mWRHIyIlTbstNtkv8Wapia/JfaWgMxJS6jotnoWQXLmu1XgGQioLVZ+2kBK/1PUpC91C3acqpEb3DagupLYy8CkKaWexAjWFOxufntBbAbWEczOgktBuDeoIyew9qCS0BSoIqTU6TKgJG5sDvZ7Qrb9chjqLFbe1SAtpcX8bXZ58d8wjVXbMi4mvw3tXE/WpPzdvo22RSktm6EBYSHeOhPuuiTzUR7m6kLg/6rXMn6MP8xkIXRECbtr35bptYo8P/OoLg6uw9u62Asmd23x3uDT7/VA7shCmoRPunbv9g+ZYbOKcEMxTC6ELLLy/rkBKjvto5zsmQurYZal3N2C/j8WzEgbO14rbJrqNer5qIWRf73IYvALpEPeE3GQdskf7rB22UQoeR55IyG+kfniMjpGBFkJquY10f74+Fn3w20LIXtp3w+sJXDMaCFPuwrB2YfzzCTeB5bg8JPABjYHQcW/DfjhBjr6bsRGumMVYXvczEuPD+kJqmcU4NYM95tmaobBnFsNfH5EYXjQQbpnF6Ia3ocgIsb4wZc7Z6uH7SXR4EeGMEQ67UpnPaaYhzPI3YXjw5pFOzyCcd3/Gl6uP0/y3sGrSh4aDk6kLT83jw6eTFt4ujB9r0sJ1jAHwSQsXLy88x3jNSQtXMV4TwrhBCOGYpi0ceaL2PMK+HFHzTMJ6TB9PEyYtHBWEEEIIIYQQQgghhBBCCCGEEEI4OeGmGlH+TMI2xtQzkxaWL//ZE4TfCsK4QQjhmCCMG4QQjgnCuEEoIuS+I/9awiMj9C8l5G7L3UnN7mkhdNx35PtXErI3/cX4ai6bhfDM3RMX5dtWXAZCWjBPnD3+vIEMhOmJeeKN3A2W+sKGu2OseCEhfz/VVmwqaH0he3941n79H0emLuQ/LKg+fn8xXtrCwFw4PoaFT1vo2PvDs48fbURMWRj4QGsjt5EqC4mbqe3SQW4V6gpDk6bVgqtQVehC907PRWfBUhOS84Hb37Mo5/OhwsLENZ9zo1/IlcEJDIrxz/qN7ghjRq0PT+snugpVhJQ2hzvTpHhRIC8sH7uZ+d8bZprz4u5EPktRX2DGga6MNFNpv+18dX+Wm0/3m2gI4802W389echadDcTEiomeFExDWEtNsQ2FaHYOPBUhJ080FYoeN07DeFcA2gpVFmDlsJOB2gmrBX2oqbCSv44aCqs1xHm8ZmycLmQPhe1FS59orcCDYR1IXtFby2s16VTBmoKs6pzBj8ZqyXMKp8r7kCVhdmm2LaN7v7lPTqK/sqv7/p2lZj/nrFkzPQ0CCGEEEIIIYQQQgghhBBCCCGEEEIIIYR+WH8BdaF12fz6vCQAAAAASUVORK5CYII=;" vertex="1" parent="1">
          <mxGeometry x="588.31" y="333.27" width="40" height="40" as="geometry" />
        </mxCell>
        <mxCell id="nNiH5lSY_lWaH5biGTzU-4" value="" style="shape=image;verticalLabelPosition=bottom;labelBackgroundColor=default;verticalAlign=top;aspect=fixed;imageAspect=0;image=data:image/jpeg,/9j/4AAQSkZJRgABAQAAAQABAAD/2wCEAAkGBxISEhITEhASEBUSEBMWEhAVFQ8YGBgVFRkXFhcVFxUYHikgGiYlHBYVIjEhJSkrLi8uFyAzODMwNygtMS0BCgoKDg0OGxAQGzIlHyU3LzUyKystLS0tLS01Kzc1LzA1Ly0rLy41Mi0tLTY1LS0vLS8tLS8tNy0vLTUyKzctNf/AABEIAKIBNwMBIgACEQEDEQH/xAAcAAEAAQUBAQAAAAAAAAAAAAAABwEDBQYIBAL/xABGEAABAwIDBgMDBwkFCQAAAAABAAIDBBEFEiEGBxMxQVEiYXEjMoEUQlJykaGxFTNDYoKSosHCFyRTY9EWJjRzg5PS4fD/xAAaAQEBAQEBAQEAAAAAAAAAAAAABQQDAgYB/8QAKhEBAAICAQMCBAcBAAAAAAAAAAECAwQxERIhQVETMjOhBRRhcYGx8CL/2gAMAwEAAhEDEQA/AJxREQEREBERAREQEREBERARF566tihYZJpGQsb70j3Na0epOiD0Ioo2p340cF2Ucbqx4/SG7IgeXMjM74AA91o/+8OP/Tip3+sFPlP8Uo/f5oJX2p3qYbRXbxvlMo04MFn2I0Ic++VtjzF7+S1vZjflBUVDYailNK2R4aybih7QSbN4gytyjl4tbX1sLlXdltx1HDZ9ZI6seNeGLsiB9AczviQD2TfDu4jmpRPRQMilpGH2MTGtEkI1LQ1o95upHfxDUkIJXRQNsNvgmZTMp5YBPJC2wmdIQXsGjbjKbkCwJvroe62Rm9t/WiafSZw/oWjHq5cle6seP3hnybWLHbttPn9pSqijyj3sU5/O080fm0sePvLT9y2jCdraKpIEVSzMeUbrscT2DXWJ+F15vr5afNV6psYr/LZm0RFxdhERAREQEREBERAREQEREBERAREQEREBERAREQEREBERAWG2i2qoqFuaqqY4bjwsvd7vqxtu4+trLWN9m0k9Dh4dTuMck87YuKObGlr3ktPQnJa/S5I1AUcbvt1bcTjFZVV4ka9xLo4nZ5c3USyP9x3lY6EaoMntJvylkdwsNpSC42bLKMzyf1IW6elyfRYuh3b41izxNiM74GnUGe7ngH6FOCAzzByeim3ZvZKioG2paZkRtrJq6R31pHXcfS9lm0GkbLbq8NorO4PymUfpp7Pse7WWyt8ja/mt3REBERBzjvl2LOH1IraZuWCeQkgcopjcltujXakD6w0FlisPqmzMD29eY7HqF0rjeExVcEtPOzPHK3K4feHA9CCAQehAXLGK4ZNhFdJTT6tuCHgGz4zfJK0fbcdw4dFs09j4Vuk8Sx7ev8WvWOYZotXyWK8NdRr2KoWq8h9Gf2e23q6SwD+NGP0MhJAH6rubfw8lLOy+1tPXN9m7JIBd0DrZh3I+kPMeV7KBS1VhldG5r2OLHNN2uaSCCOoIWPPp0yeY8S1YNu+LxPmHTCLSNgduBV2gnIbUAeF2gEoHUDo63MfEdQN3UXJjtjt22WseSuSvdUREXN0EREBERAREQFVUVUBERAREQEREBERAREQEREBERBjNo8Cgrqd9PUMzxvtyNnNcNQ5p6EH/AOsSoDxvZbFNnZzVUcrpae4vK0XGXmGVMXIDmM3LXQtJsuj18vaCCCAQRYg6gg8wQg0Td7vPpcSDY32pqq2sDjo8jrE4+93y8xrzAut9XNu9nZamhrT+T28FzWh0sTTZjZD4gI/oG1ja9tRa1ll932+SSEtpsUzPY3wirs4yM7CVvN4/WHi75rr3bHasRMxy8VyVtMxE8J7RWaOrjlY2SJ7ZGPF2SMILXDuCOavLw9iIiAtH3sbEDE6X2YAqYMzoHaeLTxRE9nWFuxA6XW8KiDkvZjECCaeUFrmkhodcEW95hB5Ea/eOi2MtXt3+YBBBUx1kE0bZZn2npw9ucPAu2cM5gG1idNbHm4rG4ZOZIY3kWLmgn15FWNHYm1eyfT+krdwRE98eqrmr4cF6HBWnBUU+YWmPc1wc0lrmkFrhoQRqCCp02D2nFdB4rCaKzZWjr2kA7Gx9CD5KDXBZPZTG3UdTHMCct8srR1jd732aEebQs21r/Fp45jh21c/wr/pPLoVF8seHAEG4IBBHUHUFfS+fXxERAREQEREBVVFVAREQEREBERAREQEREBERAREQFYrapsUckj9Gxsc9x8mgk/gr61PehWcPD5QDYyuZGPi4Fw/da5e8de+8V93jJfspNvZClZVOmkklebuke57vVxvZawKCbEa1tLA1mcucxmYsZfJcuJcedrE2HwC2Jiw2L4I5zuNC4teCHWBscw5Oa7odFa3cV7YulPT0RtLJWuTrf19U7brNgpsLa/i1rpuI3WmZfgsdp425tS7S17NuDqDYW35QVu93yujLabFMxAOVtZY5m9hM0C5+sNe4OpU401QyRjXxvbIx7Q5j2kOa5p5EOGhChLi4iIgLW94OCVFZRSRUtRJTTAh7HMeWZy0H2T3DXK6/2gHkLLZEQcaYXh7XVDoakvieHlpadDxAbOY4nkb3HqpBZCGgNaLAAADsByC2vffu+47TiFKz20bb1MbeckbR+cFubmga92juADHey+NcdmR59owfvN+l69/tVHRy1ie2eWLcx2mO6OGYcFZcF6HK08KtCXaHncFacFfeFaevbjKa912Kcahawm7qdxiP1RYs/hIH7K25RJuZrLVFRF0kha8esbrfhJ9yltfPblOzNML2pfvxRIiIszSIiICIiAqqiqgIiICIiAiIgIiICIiAiIgIiICj7fPJ/dYG96m/2MeP6lIKj3fPH/doHdqm32sef6Vo1PrVZ9v6NkTNV1qtNV1q+ifPw8eKYPHONfC+2kg5+h7hW9ldsK/BJMn56ncbmBxPDd3dG63s3fD1B0WWYvDtBWxRRHiMEmc2bGep736W7qft69LRN+J91LVz3rMV5hP2yG19JiUXEppLloHEhdYSRk9HN7eYuDbms+uSNisFxSads2GxTMc1xyztOVjRfVrpH2a4d2m9+xXVOBfKfk8XyvhcfL7UxZsma51bm15Wv53tooqs9yIiAudt8OwjsPnFfRtLYJJLva3lDKT26Md06AnLyLQuiVru020WGRxyQ1tVTBr2FskLntc4tOh9m27vsCRPQQXg+JtqIw8aOGj2dnf6dl6XrUqIxRYi5lHK6anc9wY9zXNLo7FwzNOt297C9r2F7LbnlXtTNOSnWeUfaxxjt0hYerTldeVactkMMtq3VPtiMf60UoP7t/5BTcoQ3VsviMflFKT+7b+am9RPxH6v8LH4f9L+RERYG4REQEREBVVFVAREQEREBERAREQEREBERAREQFqW9Gj4mHykC5ieyQfA5T/C5y21efEKRs0UkTvdkjcx3o4EH8V7x37Lxb2eMlO+k193NbSrrSqVVM6KR8TxZ0b3McPNpsfwRpX08T1fN9OnhfaVi9psKdPG0ssXxkkA6XBtcX+AWSYVdaVyy44vWay74rzS0Wh6dht8M9GGUtfCZYow1jZGtDZY2gWALdA8AAdj5lTlgOPU1bEJaWdkzOpadWnnle06tPkQFz9XYfFO20jA7s7k4ehWvx0Fbh8nHopngj5zPet2ezk8ctNfRRs2nfH5jzCvi2q38T4l1mih3YjfdFLlixFggfoBUsDuGTy8bdSzprqOfuhS9Tzska18b2yMcLte0hzSD1BGhWNpfbmggg6gixXLW9XYM4XUB0bXOpJnEwu18B5mFzj1A5E8x3IK6mWN2iwSGtp5KaduZkjbX0u13zXtPQg6hBzlgFLThgkgb7wsS43cO7T2+CyLytbxGgnwatfTT+JhsQ4A2fGb5ZWj4G48iOi2DiAgEEEEXBHIg9Vd1Mtb06R4mPRH28dqW6zxL5crT19uKtOK2wwS3/c1R5qieXpHCGfGR1/wjP2qXVpu6vC+DRNe4WdUPMn7Hus+4Zv2luK+e3L9+aZhe1KdmKIERFmaRERAREQFVUVUBERAREQEREBERAREQEREBERAREQRHvcwExytq2DwzWbL5SNFmn9pot6t81oDSukMVw6OoifDKMzJG2PcdQR2INiPRc/bQ4LLRzuhl6asfbR7DycP9OhBCtaGx3V7J5j+kXewdl++OJ/t5AVda5edpX2CqEscS9LXK4HLzNcvsOXiYdIs8OK4FDPckZH/AOI238Q6/ivBguO4ngz7wyZoSbujdd8LvrN5sPLUWPmVnsyE356+Sy5tOmTzxLVi27U8cwk7YjexRV+WOQ/JKg6cKQjK4/5cmgP1TY9gVIC5QxXZqN93RWjd9H5p/wDH4fYsvsnvNxDC3NhqA6qgGgjkPia0f4Uv2aG40sLKTm174vmjx7qWLPTJxPn2TVvK2KjxSlLPC2eIF1NKejurHHnldYA9tD0XOmEVclPK6kqGmNzHluV3NjwdWnyPT/2ul9kdtqLEmXppvGBd9O+zZW+reo/Wbcea0vfXu9+VxmtpmXqIWe1Y0azRN7Dq5o5dSNNbNC8Ystsdu6HrLjjJXtlHrisjsvgzqypjhF7E5pHD5sbfeP4AeZC1PZ3EjMBEbuk0DQLkv6AAdT+K6K2A2X+RQXeBx5bGU88o6Rg+V9e5J8lZy7lYxd1eZ4/36JGLUtOXstxHP+/Vs8UYa0NaAA0ANA5ADQAL6RFCWxERAREQEREBVVFVAREQEREBERAREQEREBERAREQEREBYTavZuKuiyP8L23MUoGrHfzB6jr62KzaL1W01nrHLzasWjpPDnLHMGmo5TFOzKfmuGrXj6TXdR946rwhy6NxjCIaqMxzxiRvTu0/Sa7mD6KJ9pd29RBd9Neqj18ItxWjzb8/9nXyVnX3q3jpfxP2R8+lbH5p5j7tNDl9ZlZcC0kOBaQbFpBBB7EHkqhy38sXVezJmVrMmZOh1XC5WqiJr25XtDgehQuXyXL8mInxJ3dJ6wwFVgkkTxLSyOY5pu2zi17T3Y8KQNi99k0JEOJxulaCB8pa0CRv/MZoHeosdORK+dntkKussWR8OM/p5Ltbbu3q/wCGnmFIH9k+HvpzFM10sjhrVA5XtP8Al8w0anQ3v1vYKLuYsNJ/4nz7LGnlzX+ePHujHeNgTI3sxrCJmuhdK18hit7Ca4s7L80OJF2uGhNuTgBM+7zapuJ0UdRlDHgmOZg5NlaBmt5EFrh5OCiDEtyeIxPeykqo5IJbBxc+SIloNw2VgBDrG3K/ewUvbvdlG4ZRspw/iPLnSTSAWDpHWBsOwDWgfVWBvbKiIgIiICIiAiIgKqoqoCIiAiIgIiICIiAiIgIiICIiAiIgItW202+osLyioe90j25mQRtDnlt7ZjcgNF78yL2Nr2K8GyO9OgxCUQR8WCU3yRzNY3PYXIa5rnC9uhIOiDeFRa3ge2tPVVlVRMZNHNS5s4kbGA4NdkLmEOJIuWnUDRwVnZfb6kr6mopYBKJKfNmLxGGvDX8MuYWuJIvbmB7wQZnFsBpqkWngZJpYOIs4ejxZw+BWpV+6qldcxTTQ+RyvaPgbO+9ZrZTbSnxCWqjgZMPkjwySR7YwxxJe0ZC1xJ9wnUDQhYaDe1QPrRRBlSHmpNOJiyLhGQOyaOz3sTbW3ULrTPkp8suV8GO/zQw0m6WUe7WMPrG4fg4r5bumm61cQ9GPP81vO2O2FLhkTZKlzvGSI42AOe8gXOUEgaaXJIGo7hYnZHebR4i+SOKKpjfFE6VzZI2DwNtcgtcR1HO3Ndvz2f3+0OP5HD7feWMot0sY/O1cj/KNjGfe4uW0YTsXQ05BZTtc4fPku837jNoPgAtPp9+mFucAY6yMHm90UVh65ZCfsBUlUVWyaNksTxIyRgcx45FrhcELnfZy35s6U1sVOKryKL59+eGsc5hgrbtcWm0dPa4NtPa+S2/ZjbGnrqR9ZGJYoo3SB5mDGkCNoc53hcRax79CuDu2FFo2x+9KixGoFNDHURPMbntMzYWtdl5taWvcSbXPLk0q9trvKpMLmZBUR1D3PiEgMTYi3KXObYlz2m92nog3NFrGxm3lFiecUz3h8YDnwyNyvDTpm0JBF9NCbaX5hbOgIiICIiAiIgKqoqoCIiAiIgIiICIiAiIgIiICIiAiIggvGC3/AGvi+VW4fs+Dny5f+H9na/8AnXt+svve7w/y5hXBy8fPBxMvO/Gbw81uvvedrdLKSdtNgqLFMpqGPbIwZWTxuDXht75TcEOF+hBtc2tcrH7IbrcPw6UTxiWaVt8kkzmuyXFjla1rRe3UglBpG2db+StoH1Y0bVYdM4npnZE4Bo8y+CL99arss52DuoK0+EVmGVxdfq9nFdGB65ab7VN23OwFLiphNQ+eMwZw0wujaSH5bh2Zjr+6LcuZVjaPdvR1tNSU0jpmMomBkL43Rh+UNawhxcwg3yNJsBqEGlbs5fybs7VVxsHSGaSO/wBIWgib/wBwfxKKhidO3DY42ukFazEDPny6BhYG2D788zGu5d10ji2wdNPQQ4cZaiOCHh2Mbog9/DBAzksINycxsBqAvVJsdSuofkBaeFwGw5/Z8SzQLPzZbZri97Wv0QaZtngYx6iw6ogqY4akRGWGN7rB2YM4rdNQWva0ZgDYix53Hn2F2zrZKmqw7EoozUw00v8AeGhmY5QCWvy+E3DgQRblqNVmKvc/QyUsFK6arLaZ8roX54c4ExDns/N5SLi/K+p1WU2Q3c0WHCTgCR8krCx08jmufkPNrbANaL2PLWwveyCCdjsPxKsw+oo6Okjmhlqo3S1DnMaWOaGEAFzhbkCSATYkdV0bsfgxoqKmpnOD3QxBrnC9i7m61+lybeS8mxOxtPhcUkVO+Z7ZJM7jK6Mm9g2wytbpYLY0EM7xcUkxauZg1E5ojY/NWzjkCw+IG3MM006vIGllmd6k0OGYJ8lpgGNly00YFr5XXdK53clofc93qzJuJw1xJNRXEkkk8Sm5n/or1f2L4fwY4DPWmOOaSUN4kGrpGxtdmtF2iaNLHU90EP0u0dJTS4NPTcTiUbMtZdtgQ55e8NN/FcTTNv2DVum9+plbjmGSU0YnkEEDoYyRZ7uNKWi9xz06qUtrti6TEYBBM10bWyNe18PDY4Foc21y0i1nHSy8Eu7ildPQ1Dpqpz8Pihjhu+GzmwuLmmT2dydbEgjkg13ddsjXR19XiVfFHTPqGva2nYWc5Hte51mkgAZAACSTck+cqIiAiIgIiICIiAqqiqgIiICIiAiIgIiICIiAiIgIiICIiAiIgKiIgIiICIiAiIgIiICIiAiIgIiICIiAiIgKqIgIiICIiD//2Q==;" vertex="1" parent="1">
          <mxGeometry x="909.11" y="750" width="76.79" height="40" as="geometry" />
        </mxCell>
      </root>
    </mxGraphModel>
  </diagram>
</mxfile>
